<?xml version="1.0" encoding="utf-8"?>
<!-- Generator: Adobe Illustrator 24.0.0, SVG Export Plug-In . SVG Version: 6.00 Build 0)  -->
<svg version="1.1" id="Layer_1" xmlns="http://www.w3.org/2000/svg" xmlns:xlink="http://www.w3.org/1999/xlink" x="0px" y="0px"
	 viewBox="0 0 1920 1080" style="enable-background:new 0 0 1920 1080;" xml:space="preserve">
<style type="text/css">
	.st0{fill:#E4F4FC;}
	.st1{opacity:0.75;fill:#47475B;enable-background:new    ;}
	.st2{fill:#D1E2E8;}
	.st3{fill:none;stroke:#5A96AE;stroke-width:14;stroke-miterlimit:10;}
	.st4{fill:#5A96AE;}
	.st5{fill:url(#SVGID_1_);stroke:#F6E7BA;stroke-width:9;}
	.st6{fill-rule:evenodd;clip-rule:evenodd;fill:#FFFFFF;stroke:#231F20;stroke-width:0.216;stroke-miterlimit:22.9256;}
	.st7{fill-rule:evenodd;clip-rule:evenodd;fill:url(#SVGID_2_);}
	.st8{fill-rule:evenodd;clip-rule:evenodd;fill:url(#SVGID_3_);}
	.st9{fill:#FFFFFF;}
</style>
<g>
	<g>
		<g>
			<path class="st0" d="M967.4,481.6L960,487L819.2,589.2L511.1,812.9l-0.6,0.5l-6.1,7.4c0.8-1.9,1.9-3.6,3.2-5.2
				c1-1.2,2.1-2.2,3.3-3.1c0-0.1-0.1-0.1-0.1-0.2l307.9-223.5l0,0l23.3-16.9l124.9-90.7L967.4,481.6z"/>
			<path class="st0" d="M967.4,481.6L960,487L819.2,589.2L511.1,812.9l-0.6,0.5l-6.1,7.4c0.8-1.9,1.9-3.6,3.2-5.2
				c1-1.2,2.1-2.2,3.3-3.1c0-0.1-0.1-0.1-0.1-0.2c-9.2-14.7-13.3-31.9-13.3-49.1V388.5c0-10.8,2.8-20.9,7.5-29.5l4.2,5l55.2,40.1
				l0,0l66.5,48.3l187.7,136.3l0,0l23.3-16.9l124.9-90.7L967.4,481.6z"/>
			<polygon class="st1" points="564.4,404.1 842.1,571.9 819.2,589.2 			"/>
			<path class="st0" d="M1422.4,388.5v419.1c0,0.7-0.1,5.9-0.1,6.6l-311.1-224.8l308-220.4C1421.3,375.1,1422.4,381.7,1422.4,388.5z
				"/>
			<polygon class="st1" points="1370.2,403.6 1092.5,571.4 1115.4,588.7 			"/>
			<path class="st0" d="M1421,809.7c0,1.1-0.1,2.3-0.2,3.4c-0.3,3.8-1,7.5-2,11c0.8-3.8,0.5-7.8-0.7-11.3c-3,5.8-6.6,10.8-10.7,15
				l2,1.4c-3.1,8.9-13.8,12.3-24.8,13.6c-21.2,8.8-47.2,9.6-70.2,9.6H597.8c-19.8,0-36.2-3.3-49.6-8.9c-9.5-0.6-18.4-5.6-24.3-13.7
				l1-0.7c-5.5-4.9-10.1-10.3-13.9-16.2l308.1-223.7L960,487l7.4-5.4L1113.1,587l0.7,0.5l1.6,1.2h0.1L1420,808.9L1421,809.7z"/>
			<path class="st2" d="M1381.5,843.1c-5.2,0.4-10.4,0.5-14.7,0.5H550.3c-0.7,0-1.4,0-2.1-0.1c13.4,5.6,29.8,8.9,49.6,8.9h716.5
				c0.8,0,1.6,0,2.4,0c22.4-0.1,47.4-1.1,67.8-9.6C1383.6,842.9,1382.5,843,1381.5,843.1z M1417.2,810.5L1417.2,810.5
				c-0.1-0.1-0.1-0.2-0.2-0.3c-1.5-3.1-3.7-5.7-6.4-7.8l-284.8-206l-12.2-8.8l-135.9-98.3c-3.3-2.4-7.1-3.6-10.9-3.6
				c-2.3,0-4.6,0.4-6.8,1.3c-1.5,0.6-2.9,1.3-4.2,2.3l-113.7,82.6l0,0l-0.2,0.2l-23.1,16.8l0,0L804,599.5L511.1,812.2
				c-0.1,0.1-0.2,0.2-0.3,0.3c-0.5,0.4-1,0.8-1.5,1.3c-0.6,0.6-1.2,1.2-1.8,1.9c-1.3,1.6-2.4,3.3-3.2,5.2l5.4-6.5l0.8-0.9l0.6-0.5
				c3.8,5.9,8.4,11.3,13.9,16.2l297-215.7l144.8-105.1l140.7,102L1406,826.8l1.4,1c4.1-4.2,7.8-9.2,10.7-15
				C1417.9,812,1417.6,811.3,1417.2,810.5z"/>
		</g>
		<path class="st3" d="M497.4,357.8c0,0,0,11.5,0,30.7v374.6c0,17.2,4.1,34.4,13.3,49.1c0,0.1,0.1,0.1,0.1,0.2
			c0.1,0.2,0.2,0.3,0.3,0.5c3.8,5.9,8.4,11.3,13.9,16.2c6.5,5.7,14.2,10.6,23.3,14.4c13.4,5.6,29.8,8.9,49.6,8.9h716.5
			c23.1,0,49-0.8,70.2-9.6c8.5-3.5,16.3-8.4,22.8-15c4.1-4.2,7.8-9.2,10.7-15c0.2-0.4,0.4-0.8,0.6-1.2c0.4-0.9,0.8-1.8,1.2-2.7
			c0.9-2.1,1.7-4.3,2.5-6.5c3-9.2,4.7-20.1,4.7-33.1c0-79.3,0-405.4,0-405.4"/>
	</g>
	<g>
		<polygon class="st0" points="514.5,365 1413,371 1121.6,590.2 1119.3,592 1103.2,604 960.4,711.5 		"/>
		<path class="st4" d="M535.1,372.1l857.1,5.8l-274.6,206.6l0,0l0,0l-0.1,0.1l-2.3,1.7l-16.1,12.1L960.5,702.7l-129.9-101
			l-17.4-13.6l-0.5-0.4l0,0l0,0l-0.1-0.1L535.1,372.1 M490.1,357.7l5,1l2.3,1.8l4.7,3.7l301.7,234.5l0.2,0.1l0.5,0.4l17.4,13.5
			l138.4,107.5l147.1-110.7l16.1-12.1l2.3-1.8l0.2-0.1l294.8-221.8l4-3l2.3-1.7l6.6-4.9l-6.6-0.1h-2.3l-922.7-6.2L490.1,357.7
			L490.1,357.7z"/>
	</g>
</g>
<g>
	<linearGradient id="SVGID_1_" gradientUnits="userSpaceOnUse" x1="648.7699" y1="809.217" x2="648.7699" y2="708.0599">
		<stop  offset="5.154639e-03" style="stop-color:#003543"/>
		<stop  offset="9.730822e-02" style="stop-color:#095363"/>
		<stop  offset="0.212" style="stop-color:#137185"/>
		<stop  offset="0.3217" style="stop-color:#1A879D"/>
		<stop  offset="0.4231" style="stop-color:#1F94AB"/>
		<stop  offset="0.5083" style="stop-color:#2099B0"/>
		<stop  offset="0.6157" style="stop-color:#1F96AD"/>
		<stop  offset="0.7076" style="stop-color:#1C8CA2"/>
		<stop  offset="0.7939" style="stop-color:#177C90"/>
		<stop  offset="0.8767" style="stop-color:#0F6578"/>
		<stop  offset="0.9564" style="stop-color:#064858"/>
		<stop  offset="1" style="stop-color:#003543"/>
	</linearGradient>
	<path class="st5" d="M753.8,750.7c-13.4,0-24.3-10.3-24.5-23.1l-15.3,0c-10.1-13.8-35.5-19.5-65.1-19.5c-29.7,0-55,5.8-65.1,19.5
		l-16,0c-0.2,12.8-11,23.1-24.4,23.1l0,43.6c0.5,0,1,0,1.5,0c19.1,0,34.5,6.6,34.8,14.9h139.3c0.3-8.2,15.7-14.9,34.8-14.9
		c0.2,0,0.5,0,0.7,0v-43.6C754.1,750.7,753.9,750.7,753.8,750.7L753.8,750.7z"/>
	<path class="st6" d="M616.1,776.7c0,3-2.2,6.7-5,8.2l-17,9.2c-2.8,1.5-7.3,1.5-10.1,0l-17-9.2c-2.8-1.5-5-5.2-5-8.2l0-18.7
		c0-3,2.2-6.7,5-8.2l17-9.3c2.8-1.5,7.3-1.5,10.1,0l17,9.3c2.7,1.5,5,5.2,5,8.2V776.7L616.1,776.7z"/>
	<linearGradient id="SVGID_2_" gradientUnits="userSpaceOnUse" x1="563.8499" y1="767.4035" x2="614.3724" y2="767.4035">
		<stop  offset="5.154639e-03" style="stop-color:#003543"/>
		<stop  offset="9.730822e-02" style="stop-color:#095363"/>
		<stop  offset="0.212" style="stop-color:#137185"/>
		<stop  offset="0.3217" style="stop-color:#1A879D"/>
		<stop  offset="0.4231" style="stop-color:#1F94AB"/>
		<stop  offset="0.5083" style="stop-color:#2099B0"/>
		<stop  offset="0.6157" style="stop-color:#1F96AD"/>
		<stop  offset="0.7076" style="stop-color:#1C8CA2"/>
		<stop  offset="0.7939" style="stop-color:#177C90"/>
		<stop  offset="0.8767" style="stop-color:#0F6578"/>
		<stop  offset="0.9564" style="stop-color:#064858"/>
		<stop  offset="1" style="stop-color:#003543"/>
	</linearGradient>
	<path class="st7" d="M593.9,742.5L593.9,742.5l15.6,8.5c1.3,0.8,2.5,2,3.4,3.4c0.9,1.5,1.4,3.1,1.4,4.5v17.1c0,1.4-0.5,3.1-1.4,4.5
		c-0.9,1.4-2.1,2.7-3.4,3.4l-15.6,8.5c-1.4,0.8-3.1,1.2-4.8,1.2v-0.8c1.6,0,3.2-0.3,4.4-1l15.5-8.5c1.2-0.6,2.3-1.8,3.1-3.1
		c0.7-1.3,1.3-2.7,1.3-4v-17.1c0-1.3-0.5-2.8-1.3-4.1c-0.8-1.3-1.9-2.5-3.1-3.1l-15.5-8.5c-1.2-0.7-2.9-1-4.4-1v-0.8
		C590.9,741.4,592.6,741.7,593.9,742.5L593.9,742.5L593.9,742.5z M589.1,793.4L589.1,793.4c-1.8,0-3.5-0.4-4.8-1.2l-15.6-8.5
		c-1.3-0.7-2.5-2-3.4-3.4c-0.9-1.4-1.4-3.1-1.4-4.5v-17.1c0-1.5,0.5-3.1,1.4-4.5c0.9-1.4,2.1-2.6,3.4-3.4l15.6-8.5
		c1.4-0.8,3.1-1.1,4.8-1.1v0.8c-1.6,0-3.2,0.3-4.4,1l-15.5,8.5c-1.2,0.6-2.3,1.8-3.1,3.1c-0.7,1.3-1.3,2.7-1.3,4.1v17.1
		c0,1.3,0.5,2.7,1.3,4c0.8,1.3,1.9,2.5,3.1,3.1l15.5,8.5c1.2,0.7,2.9,1,4.4,1V793.4L589.1,793.4z"/>
	<linearGradient id="SVGID_3_" gradientUnits="userSpaceOnUse" x1="572.4967" y1="768.0025" x2="603.795" y2="768.0025">
		<stop  offset="5.154639e-03" style="stop-color:#003543"/>
		<stop  offset="9.730822e-02" style="stop-color:#095363"/>
		<stop  offset="0.212" style="stop-color:#137185"/>
		<stop  offset="0.3217" style="stop-color:#1A879D"/>
		<stop  offset="0.4231" style="stop-color:#1F94AB"/>
		<stop  offset="0.5083" style="stop-color:#2099B0"/>
		<stop  offset="0.6157" style="stop-color:#1F96AD"/>
		<stop  offset="0.7076" style="stop-color:#1C8CA2"/>
		<stop  offset="0.7939" style="stop-color:#177C90"/>
		<stop  offset="0.8767" style="stop-color:#0F6578"/>
		<stop  offset="0.9564" style="stop-color:#064858"/>
		<stop  offset="1" style="stop-color:#003543"/>
	</linearGradient>
	<path class="st8" d="M600.1,769.1c0,0,1-10.1,1.1-11.4l2.5-4c0.1-0.1,0.1-0.3,0.1-0.5c-0.1-0.2-0.3-0.3-0.5-0.3l-10.6-1.6v1.1
		c3.3,0.5,8.4,1.3,9.5,1.5c-0.5,0.9-1.6,2.6-1.9,3c-0.5-0.1-4.2-0.6-7.6-1v1.2c2,0.3,4,0.5,5.6,0.7l-5.6,2.2v1.3
		c3.2-1.3,6.4-2.5,7.1-2.9c-0.1,1.6-1,9.6-1,10.2c-0.3,0.1-3.1,1-6.1,2v1.2c2.7-0.8,5.4-1.7,6.1-1.9c-0.1,1.3-0.6,5.5-0.6,6.1
		c-0.4,0.1-2.9,0.9-5.4,1.7v1.2l5.4-1.7l0.1,2.3c-0.3,0.2-0.5,0.5-0.5,0.9c0,0.7,0.6,1.2,1.3,1.2c0.7,0,1.2-0.5,1.2-1.2
		c0-0.4-0.3-0.9-0.7-1l-0.2-2.9L600.1,769.1L600.1,769.1z M592.7,751.3l-2.9-0.4c-0.2-0.1-0.5,0.1-0.6,0.3l-3,4.2l-7.2,3.1v1.3
		l7.8-3.4c0.7,0.1,3.2,0.4,5.9,0.8v-1.2c-2.3-0.3-4.4-0.6-5-0.6c0.7-1,2-2.7,2.3-3.2c0.2,0,1.3,0.2,2.7,0.4V751.3L592.7,751.3z
		 M579,772.9l3.9,0.9l-3.9,1.5v1.3c2.7-1,6.1-2.4,6.1-2.4c0,0,3.9-1.2,7.6-2.4v-1.2c-2.8,0.9-5.8,1.8-7.1,2.3l0-8.8
		c1-0.4,4.1-1.6,7.1-2.8V760l-7.9,3.1l-5.8-1.1v1.2c2.5,0.4,4.8,0.9,5.2,1l0,8.7c-0.7-0.2-3.1-0.7-5.2-1.2V772.9L579,772.9z
		 M579,782.2c0.1-0.1,0.1-0.2,0.1-0.3c0-0.1,0-0.2-0.1-0.3V782.2L579,782.2z M579,779v-1.2c3.1,0.7,7.5,1.6,7.7,1.7
		c0.2-0.1,3.1-1,6-1.8v1.2l-5.3,1.6v2.5c0.4,0.2,0.8,0.6,0.8,1.1c0,0.6-0.6,1.2-1.3,1.2c-0.7,0-1.2-0.5-1.2-1.2c0-0.4,0.2-0.8,0.5-1
		v-2.6L579,779L579,779z M579,758.4l-6.2,2.7h-0.1l-0.1,0.1h-0.1v0.1c0,0-0.1,0-0.1,0.1c0,0.1-0.1,0.1-0.1,0.1v0.1v0.1v0.1l1.5,9.8
		c0.1,0.2,0.3,0.4,0.5,0.5l4.6,1.1v-1.2c-1.8-0.4-3.5-0.8-3.8-0.9c-0.1-0.6-1.2-7.3-1.4-8.5c0.7,0.1,2.9,0.5,5.2,1v-1.2l-3.9-0.7
		l3.9-1.7V758.4L579,758.4z M579,775.3l-4.3,1.7c-0.3,0.1-0.4,0.3-0.4,0.6c0,0.3,0.2,0.5,0.5,0.6l2.3,0.4v2.3v0.1
		c-0.3,0.3-0.5,0.6-0.5,1c0,0.6,0.6,1.2,1.3,1.2c0.5,0,1-0.4,1.2-0.9v-0.6c-0.1-0.4-0.3-0.6-0.7-0.8v-2l0.7,0.1v-1.2
		c-0.3-0.1-0.7-0.1-1-0.2c-0.1-0.1-0.1-0.1-0.3-0.1c-0.3-0.1-0.5-0.1-0.7-0.2c0.5-0.2,1.3-0.4,2-0.8V775.3L579,775.3z"/>
	<path class="st9" d="M627.2,741.3c0,0.2,0,0.4-0.1,0.7l-0.3,2c0,0.2,0,0.3,0,0.4l-0.2-0.1c-0.2-0.1-0.3-0.2-0.3-0.3
		c-0.1-0.1-0.1-0.2-0.1-0.4v-1.5c0-0.3,0-0.4-0.1-0.5c-0.1-0.1-0.2-0.1-0.5-0.1h-1.9l0.6-1.6c0.2,0.2,0.3,0.4,0.5,0.4h1.4
		c0.3,0,0.5,0.1,0.7,0.2C627.1,740.7,627.2,741,627.2,741.3L627.2,741.3z M624.9,742.8l-0.3,1.2c0,0.2-0.1,0.3-0.1,0.4l-0.2-0.1
		c-0.3-0.1-0.4-0.3-0.4-0.7l0-1c0-0.2-0.1-0.4-0.2-0.5h0.8c0.3,0,0.4,0.1,0.4,0.3C624.9,742.6,624.9,742.7,624.9,742.8L624.9,742.8z
		"/>
	<path class="st9" d="M631.2,741.5l-0.5,1.6c-0.1,0.4-0.2,0.7-0.4,0.8c-0.1,0.1-0.3,0.2-0.6,0.3l-0.3,0.1c-0.1,0-0.2,0.1-0.3,0.1
		l0.2-1c0-0.2,0.1-0.3,0.2-0.3l0.3-0.1c0.1,0,0.3-0.1,0.3-0.2c0-0.1,0.1-0.2,0.1-0.4l0.1-0.7c0-0.1,0-0.2-0.1-0.2h-2.6l0.6-1.6
		c0.2,0.2,0.4,0.4,0.7,0.4h1.7c0.5,0,0.7,0.2,0.7,0.6C631.3,741.1,631.3,741.3,631.2,741.5L631.2,741.5z M628.9,742.6l-0.3,2.7
		c0,0.2,0,0.3,0,0.4l-0.3-0.1c-0.2-0.1-0.3-0.3-0.3-0.7l-0.1-2.4c0-0.2-0.1-0.4-0.2-0.5h0.7c0.2,0,0.3,0,0.3,0.1
		c0.1,0.1,0.1,0.2,0.1,0.3C628.9,742.5,628.9,742.6,628.9,742.6L628.9,742.6z"/>
	<path class="st9" d="M635.4,740.3l-0.2,0.8c-0.1,0.3-0.2,0.4-0.4,0.4h-0.2l-0.3,2.9l-0.2-0.1c-0.2-0.1-0.4-0.3-0.4-0.6l-0.2-2.2
		h-1.8l0.6-1.5c0.2,0.2,0.4,0.4,0.6,0.4H635.4L635.4,740.3z"/>
	<path class="st9" d="M639.2,740.9c0,0.2-0.1,0.5-0.3,0.8l-0.7,1c0.2,0.3,0.3,0.4,0.3,0.4c0.2,0.2,0.4,0.4,0.5,0.5l-0.3,0.4
		c-0.1,0.1-0.2,0.3-0.2,0.4H636c-0.2,0-0.3,0-0.5,0.1l0.2-0.7c0.1-0.2,0.1-0.3,0.2-0.4c0-0.1,0.1-0.1,0.2-0.1h1.5
		c-0.2-0.1-0.5-0.4-0.8-0.7c-0.2-0.3-0.4-0.5-0.6-0.8c-0.1-0.2-0.3-0.3-0.5-0.3h-0.3l0.5-1.6c0.1,0.1,0.1,0.2,0.2,0.2
		c0.1,0,0.1,0.1,0.2,0.1c0.3,0,0.4,0.2,0.6,0.5c0.2,0.5,0.5,1,0.8,1.5c0.1-0.2,0.2-0.4,0.2-0.6c0-0.2-0.1-0.3-0.3-0.3l-0.2,0
		l0.4-1.3c0.1,0.1,0.2,0.2,0.2,0.2c0.1,0.1,0.2,0.1,0.3,0.1h0.1C639,740.3,639.2,740.5,639.2,740.9L639.2,740.9z"/>
	<path class="st9" d="M645.5,741.5c0,0.2,0,0.4-0.1,0.7l-0.2,1.7c0,0.2,0,0.4,0,0.5l-0.3-0.1c-0.2-0.1-0.3-0.2-0.3-0.3
		c0-0.1,0-0.2,0-0.4v-1.5c0-0.4-0.2-0.6-0.5-0.6h-0.7l-0.2,1.8c0,0.3,0,0.6,0,1l-0.9,0c-0.3,0-0.6,0.1-0.8,0.2l0.3-1
		c0-0.1,0.1-0.2,0.1-0.2c0-0.1,0.1-0.1,0.2-0.1h0.5l-0.1-1.7h-0.7l0.6-1.6c0.2,0.2,0.4,0.4,0.6,0.4h1.4
		C645.1,740.3,645.5,740.7,645.5,741.5L645.5,741.5z"/>
	<path class="st9" d="M649.2,741.9c0,0.3-0.1,0.8-0.3,1.4l-0.2,0.6c-0.1,0.2-0.1,0.4-0.1,0.5h-2.4c-0.1,0-0.3,0-0.4,0.1l0.3-0.9
		c0-0.1,0.1-0.2,0.1-0.2c0-0.1,0.1-0.1,0.2-0.1h1.8l0-0.6c0-0.4,0-0.7-0.2-0.9c-0.2-0.2-0.4-0.3-0.7-0.3h-0.7l0,0.2
		c0,0.3,0.1,0.4,0.3,0.4h0.4l-0.2,0.5c-0.1,0.2-0.1,0.3-0.3,0.3c-0.1,0-0.2,0-0.4,0c-0.4,0-0.6-0.2-0.6-0.6c0-0.1,0-0.3,0.1-0.5
		l0.6-1.9c0.1,0.1,0.1,0.1,0.2,0.2c0.1,0.1,0.2,0.1,0.3,0.1h0.4C648.6,740.3,649.2,740.8,649.2,741.9L649.2,741.9z"/>
	<path class="st9" d="M651.2,740.9c0,0.1,0,0.3-0.1,0.8l-0.3,2.3c0,0.3-0.1,0.4-0.1,0.5l-0.2-0.1c-0.2-0.1-0.3-0.2-0.3-0.3
		c0-0.1-0.1-0.2-0.1-0.4V742c0-0.3-0.1-0.4-0.3-0.4h-0.3l0.5-1.5c0.1,0.1,0.1,0.1,0.2,0.2c0.1,0.1,0.2,0.1,0.3,0.1
		C651,740.3,651.2,740.5,651.2,740.9L651.2,740.9z"/>
	<path class="st9" d="M655.2,741.5l-0.5,1.6c-0.1,0.4-0.2,0.7-0.4,0.8c-0.1,0.1-0.3,0.2-0.6,0.3l-0.3,0.1c-0.1,0-0.2,0.1-0.3,0.1
		l0.2-1c0-0.2,0.1-0.3,0.2-0.3l0.3-0.1c0.1,0,0.3-0.1,0.3-0.2c0-0.1,0.1-0.2,0.1-0.4l0.1-0.7c0-0.1,0-0.2-0.1-0.2h-2.6l0.6-1.6
		c0.2,0.2,0.4,0.4,0.7,0.4h1.7c0.5,0,0.7,0.2,0.7,0.6C655.3,741.1,655.3,741.3,655.2,741.5L655.2,741.5z M652.9,742.6l-0.3,2.7
		c0,0.2,0,0.3,0,0.4l-0.3-0.1c-0.2-0.1-0.3-0.3-0.3-0.7l-0.1-2.4c0-0.2-0.1-0.4-0.2-0.5h0.7c0.2,0,0.3,0,0.3,0.1
		c0.1,0.1,0.1,0.2,0.1,0.3C652.9,742.5,652.9,742.6,652.9,742.6L652.9,742.6z"/>
	<path class="st9" d="M626.7,750.4c0,0.1,0,0.3-0.1,0.6l-0.3,3c0,0.3,0,0.5,0,0.7l-0.3-0.1c-0.2-0.1-0.3-0.2-0.3-0.3
		c0-0.1-0.1-0.2-0.1-0.4l0-2.9c0-0.4-0.2-0.5-0.5-0.5h-1.6l0.6-1.6c0.1,0.1,0.2,0.2,0.2,0.2c0.1,0.1,0.2,0.1,0.3,0.1h0.7
		c0.4,0,0.7,0.1,0.9,0.2C626.6,749.7,626.7,750,626.7,750.4L626.7,750.4z"/>
	<path class="st9" d="M630.1,750.3c0,0.2,0,0.4-0.1,0.8l-0.3,1.7c0,0.2-0.1,0.4-0.1,0.5l-0.2-0.1c-0.2-0.1-0.3-0.2-0.3-0.3
		c0-0.1-0.1-0.2-0.1-0.4l0-1.5c0-0.3,0-0.5-0.1-0.5c-0.1-0.1-0.2-0.1-0.4-0.1h-1.5l0.6-1.6c0.2,0.2,0.3,0.3,0.5,0.3h0.9
		C629.8,749.2,630.1,749.6,630.1,750.3L630.1,750.3z"/>
	<path class="st9" d="M632.2,749.9c0,0.1,0,0.3-0.1,0.6l-0.3,1.2c0,0.2-0.1,0.4-0.1,0.5l-0.2-0.1c-0.2-0.1-0.3-0.3-0.3-0.7l0-0.5
		c0-0.2,0-0.3-0.1-0.3c0-0.1-0.1-0.1-0.2-0.1h-0.4l0.5-1.6c0.1,0.1,0.2,0.2,0.2,0.2c0.1,0.1,0.2,0.1,0.2,0.1
		C631.9,749.2,632.2,749.5,632.2,749.9L632.2,749.9z"/>
	<path class="st9" d="M636.2,750.1l-0.4,1.7c-0.1,0.5-0.3,0.9-0.5,1.1c-0.2,0.2-0.6,0.4-1,0.4H633c-0.3,0-0.5,0.1-0.6,0.2l0.3-1
		c0-0.2,0.1-0.2,0.3-0.2h0.6l-0.3-1.4c0-0.1-0.1-0.2-0.1-0.3c0-0.1-0.1-0.1-0.2-0.1h-0.4l0.5-1.6c0.2,0.2,0.4,0.4,0.6,0.4
		s0.4,0,0.5,0.1c0.1,0.1,0.2,0.3,0.2,0.6l-0.2,2.2h0.4c0.3,0,0.5-0.1,0.6-0.2c0.1-0.1,0.2-0.4,0.2-0.7v-0.5c0-0.2-0.1-0.3-0.2-0.3
		h-0.5l0.5-1.5c0.2,0.2,0.4,0.4,0.6,0.4c0.4,0,0.7,0.2,0.7,0.6C636.3,749.9,636.2,750,636.2,750.1L636.2,750.1z"/>
	<path class="st9" d="M640.4,749.9c0,0.1,0,0.3-0.1,0.6l-0.3,1.2c0,0.2-0.1,0.4-0.1,0.5l-0.2-0.1c-0.2-0.1-0.3-0.3-0.3-0.7l0-0.5
		c0-0.2,0-0.3-0.1-0.3c0-0.1-0.1-0.1-0.2-0.1h-0.4l0.5-1.6c0.1,0.1,0.2,0.2,0.2,0.2c0.1,0.1,0.2,0.1,0.2,0.1
		C640.1,749.2,640.4,749.5,640.4,749.9L640.4,749.9z"/>
	<path class="st9" d="M642.4,749.9c0,0.1,0,0.3-0.1,0.6l-0.3,1.2c0,0.2-0.1,0.4-0.1,0.5l-0.2-0.1c-0.2-0.1-0.3-0.3-0.3-0.7l0-0.5
		c0-0.2,0-0.3-0.1-0.3c0-0.1-0.1-0.1-0.2-0.1h-0.4l0.5-1.6c0.1,0.1,0.2,0.2,0.2,0.2c0.1,0.1,0.2,0.1,0.2,0.1
		C642.1,749.2,642.4,749.5,642.4,749.9L642.4,749.9z"/>
	<path class="st9" d="M644.6,750c0,0.1,0,0.3-0.1,0.8l-0.2,1.8c0,0.3,0,0.5,0,0.7h-1.2c-0.2,0-0.4,0-0.6,0.1l0.3-1
		c0-0.1,0.1-0.2,0.1-0.2c0,0,0.1-0.1,0.2-0.1h0.7l-0.1-1.3c0-0.2,0-0.3-0.1-0.4c-0.1-0.1-0.2-0.1-0.3-0.1h-0.5l0.5-1.6
		c0.1,0.1,0.1,0.1,0.2,0.2c0.1,0.1,0.2,0.1,0.3,0.1c0.3,0,0.5,0.1,0.6,0.2C644.6,749.5,644.6,749.7,644.6,750L644.6,750z"/>
	<path class="st9" d="M648.7,750.1l-0.4,1.7c-0.1,0.5-0.3,0.9-0.5,1.1c-0.2,0.2-0.6,0.4-1,0.4h-1.4c-0.3,0-0.5,0.1-0.6,0.2l0.3-1
		c0-0.2,0.1-0.2,0.3-0.2h0.6l-0.3-1.4c0-0.1-0.1-0.2-0.1-0.3c0-0.1-0.1-0.1-0.2-0.1H645l0.5-1.6c0.2,0.2,0.4,0.4,0.6,0.4
		c0.2,0,0.4,0,0.5,0.1c0.1,0.1,0.2,0.3,0.2,0.6l-0.2,2.2h0.4c0.3,0,0.5-0.1,0.6-0.2c0.1-0.1,0.2-0.4,0.2-0.7v-0.5
		c0-0.2-0.1-0.3-0.2-0.3H647l0.5-1.5c0.2,0.2,0.4,0.4,0.6,0.4c0.4,0,0.7,0.2,0.7,0.6C648.8,749.9,648.8,750,648.7,750.1L648.7,750.1
		z"/>
	<path class="st9" d="M652,750.2l-0.5,1.9c-0.1,0.4-0.3,0.7-0.5,0.8c-0.1,0.1-0.4,0.2-0.6,0.3l-0.4,0.1c-0.1,0-0.2,0.1-0.3,0.1
		l0.2-1c0-0.1,0-0.2,0.1-0.2c0,0,0.1-0.1,0.1-0.1l0.4-0.1c0.3-0.1,0.5-0.3,0.5-0.8l0.1-0.7c0-0.2,0-0.2-0.2-0.2h-1.7
		c0.1-0.1,0.1-0.3,0.1-0.5v-1c0-0.3-0.1-0.5-0.4-0.5l-0.1,0l0.5-1.2c0.1,0.1,0.2,0.2,0.3,0.3c0.2,0.1,0.4,0.2,0.5,0.3
		c0.1,0.1,0.1,0.2,0.1,0.4c0,0.1,0,0.2-0.1,0.4l-0.2,0.8h1.6c0.5,0,0.7,0.2,0.7,0.7C652.1,750,652.1,750.1,652,750.2L652,750.2z"/>
	<path class="st9" d="M625.4,758.8c0,0.1,0,0.4-0.1,0.7l-0.3,3.3c0,0.3,0,0.6,0,0.7l-0.2-0.1c-0.1,0-0.2-0.1-0.3-0.2
		c-0.1-0.1-0.1-0.2-0.1-0.4v-3.2c0-0.2-0.1-0.4-0.4-0.4h-0.3l0.5-1.5c0.1,0.1,0.1,0.1,0.2,0.2c0.1,0.1,0.2,0.1,0.3,0.1
		C625.2,758.1,625.4,758.4,625.4,758.8L625.4,758.8z"/>
	<path class="st9" d="M629.4,759.1l-0.4,1.7c-0.1,0.5-0.3,0.9-0.5,1.1c-0.2,0.2-0.6,0.4-1,0.4h-1.4c-0.3,0-0.5,0.1-0.6,0.2l0.3-1
		c0-0.2,0.1-0.2,0.3-0.2h0.6l-0.3-1.4c0-0.1-0.1-0.2-0.1-0.3c0-0.1-0.1-0.1-0.2-0.1h-0.4l0.5-1.6c0.2,0.2,0.4,0.4,0.6,0.4
		s0.4,0,0.5,0.1c0.1,0.1,0.2,0.3,0.2,0.6l-0.2,2.2h0.4c0.3,0,0.5-0.1,0.6-0.2c0.1-0.1,0.2-0.4,0.2-0.7v-0.5c0-0.2-0.1-0.3-0.2-0.3
		h-0.5l0.5-1.5c0.2,0.2,0.4,0.4,0.6,0.4c0.4,0,0.7,0.2,0.7,0.6C629.5,758.8,629.5,758.9,629.4,759.1L629.4,759.1z"/>
	<path class="st9" d="M633.1,759.8c0,0.3-0.1,0.8-0.3,1.4l-0.2,0.6c-0.1,0.2-0.1,0.4-0.1,0.5h-2.4c-0.1,0-0.3,0-0.4,0.1l0.3-0.9
		c0-0.1,0.1-0.2,0.1-0.2c0-0.1,0.1-0.1,0.2-0.1h1.8l0-0.6c0-0.4,0-0.7-0.2-0.9c-0.2-0.2-0.4-0.3-0.7-0.3h-0.7l0,0.2
		c0,0.3,0.1,0.4,0.3,0.4h0.4l-0.2,0.5c-0.1,0.2-0.1,0.3-0.3,0.3c-0.1,0-0.2,0-0.4,0c-0.4,0-0.6-0.2-0.6-0.6c0-0.1,0-0.3,0.1-0.5
		l0.6-1.9c0.1,0.1,0.1,0.1,0.2,0.2c0.1,0.1,0.2,0.1,0.3,0.1h0.4C632.6,758.1,633.1,758.7,633.1,759.8L633.1,759.8z"/>
	<path class="st9" d="M636.5,759.2c0,0.2,0,0.4-0.1,0.8l-0.3,1.7c0,0.2-0.1,0.4-0.1,0.5l-0.2-0.1c-0.2-0.1-0.3-0.2-0.3-0.3
		c0-0.1-0.1-0.2-0.1-0.4l0-1.5c0-0.3,0-0.5-0.1-0.5c-0.1-0.1-0.2-0.1-0.4-0.1h-1.5l0.6-1.6c0.2,0.2,0.3,0.3,0.5,0.3h0.9
		C636.1,758.1,636.5,758.5,636.5,759.2L636.5,759.2z"/>
	<path class="st9" d="M640.6,759.1l-0.4,1.7c-0.1,0.5-0.3,0.9-0.5,1.1c-0.2,0.2-0.6,0.4-1,0.4h-1.4c-0.3,0-0.5,0.1-0.6,0.2l0.3-1
		c0-0.2,0.1-0.2,0.3-0.2h0.6l-0.3-1.4c0-0.1-0.1-0.2-0.1-0.3c0-0.1-0.1-0.1-0.2-0.1h-0.4l0.5-1.6c0.2,0.2,0.4,0.4,0.6,0.4
		c0.2,0,0.4,0,0.5,0.1c0.1,0.1,0.2,0.3,0.2,0.6l-0.2,2.2h0.4c0.3,0,0.5-0.1,0.6-0.2c0.1-0.1,0.2-0.4,0.2-0.7v-0.5
		c0-0.2-0.1-0.3-0.2-0.3h-0.5l0.5-1.5c0.2,0.2,0.4,0.4,0.6,0.4c0.4,0,0.7,0.2,0.7,0.6C640.6,758.8,640.6,758.9,640.6,759.1
		L640.6,759.1z"/>
	<path class="st9" d="M642.6,758.8c0,0.1,0,0.3-0.1,0.8l-0.3,2.3c0,0.3-0.1,0.4-0.1,0.5l-0.2-0.1c-0.2-0.1-0.3-0.2-0.3-0.3
		c0-0.1-0.1-0.2-0.1-0.4v-1.7c0-0.3-0.1-0.4-0.3-0.4h-0.3l0.5-1.5c0.1,0.1,0.1,0.1,0.2,0.2c0.1,0.1,0.2,0.1,0.3,0.1
		C642.3,758.2,642.6,758.4,642.6,758.8L642.6,758.8z"/>
	<path class="st9" d="M644.6,758.8c0,0.1,0,0.3-0.1,0.8l-0.3,2.3c0,0.3-0.1,0.4-0.1,0.5l-0.2-0.1c-0.2-0.1-0.3-0.2-0.3-0.3
		c0-0.1-0.1-0.2-0.1-0.4v-1.7c0-0.3-0.1-0.4-0.3-0.4h-0.3l0.5-1.5c0.1,0.1,0.1,0.1,0.2,0.2c0.1,0.1,0.2,0.1,0.3,0.1
		C644.3,758.2,644.6,758.4,644.6,758.8L644.6,758.8z"/>
	<path class="st9" d="M648.8,759.3c0,0.2,0,0.4-0.1,0.6l-0.2,0.8c-0.2,0.7-0.3,1.1-0.4,1.3c-0.1,0.2-0.3,0.3-0.5,0.3h-1.5
		c-0.2,0-0.4,0-0.5,0.1c0-0.3,0-0.6,0-1.1l-0.2-1.5c0-0.1,0-0.2-0.1-0.2c0,0-0.1-0.1-0.2-0.1h-0.3l0.5-1.5c0.1,0.1,0.1,0.1,0.2,0.2
		c0.1,0.1,0.2,0.1,0.3,0.1c0.4,0,0.6,0.2,0.6,0.6c0,0,0,0.1,0,0.2l-0.3,2.1c0,0.1,0,0.2,0.1,0.2h1.2c0.1,0,0.2,0,0.2-0.1
		c0.1-0.2,0.2-0.5,0.2-0.9v0c0-0.2-0.1-0.4-0.2-0.5c-0.1-0.1-0.3-0.2-0.4-0.2h-0.2c-0.2,0-0.3,0.1-0.4,0.2l0,0l0.3-1
		c0.1-0.2,0.1-0.3,0.2-0.4c0.1-0.1,0.3-0.1,0.5-0.1c0.3,0,0.6,0.1,0.8,0.3C648.7,758.7,648.8,758.9,648.8,759.3L648.8,759.3z"/>
	<path class="st9" d="M651.1,759c0,0.1,0,0.3-0.1,0.8l-0.2,1.8c0,0.3,0,0.5,0,0.7h-1.2c-0.2,0-0.4,0-0.6,0.1l0.3-1
		c0-0.1,0.1-0.2,0.1-0.2c0,0,0.1-0.1,0.2-0.1h0.7l-0.1-1.3c0-0.2,0-0.3-0.1-0.4c-0.1-0.1-0.2-0.1-0.3-0.1h-0.5l0.5-1.6
		c0.1,0.1,0.1,0.1,0.2,0.2c0.1,0.1,0.2,0.1,0.3,0.1c0.3,0,0.5,0.1,0.6,0.2C651,758.4,651.1,758.6,651.1,759L651.1,759z"/>
	<path class="st9" d="M655.1,758.7c0,0.2-0.1,0.4-0.2,0.6l-0.6,1l0.7,0.7c0.1,0.1,0.2,0.3,0.2,0.4c0,0.1,0,0.2-0.1,0.4l-0.3,0.6
		c0-0.1-0.1-0.2-0.2-0.4l-1.9-1.8l-0.1,0.5c0,0.1,0,0.1,0,0.2c0,0.2,0.1,0.2,0.2,0.2l0.2,0c0.2,0,0.2,0.1,0.2,0.2c0,0,0,0.1,0,0.2
		l-0.3,0.9c-0.1-0.1-0.2-0.2-0.3-0.2l-0.5,0c-0.3,0-0.4-0.2-0.4-0.5c0-0.1,0-0.3,0.1-0.5l0.5-1.1c0,0,0-0.1,0-0.1
		c0-0.1,0-0.2-0.1-0.2l-0.3-0.3c-0.1-0.1-0.2-0.3-0.2-0.4c0-0.1,0-0.2,0.1-0.3l0.4-0.9c0,0.3,0.1,0.5,0.3,0.6l1.6,1.6
		c0.1-0.3,0.2-0.4,0.2-0.5c0-0.2-0.1-0.3-0.3-0.3l-0.2,0l0.4-1.3c0.2,0.2,0.3,0.3,0.5,0.3C654.9,758.1,655.1,758.3,655.1,758.7
		L655.1,758.7z"/>
	<path class="st9" d="M673.9,741.3l-1.3,4.4c-0.3,0.8-0.5,1.3-0.8,1.5c-0.2,0.1-0.8,0.2-1.8,0.2l-1.3,12.4c-0.1,1.2-0.2,2.2-0.2,2.7
		L667,762c-1.1-0.4-1.8-1.5-1.9-3.2l-0.8-11.4h-3.5l3.2-8.1c0.8,1.3,2.1,1.9,3.8,1.9H673.9L673.9,741.3z"/>
	<path class="st9" d="M689.9,749.9c0,1.7-0.4,3.8-1.1,6.3c-0.8,2.6-1.8,4.6-2.8,6h-10.1c-0.7,0-1.3,0.2-1.9,0.5l1.3-4.1
		c0.2-0.8,0.4-1.3,0.6-1.5c0.2-0.3,0.7-0.5,1.3-0.5h7.9c0.6-0.7,0.8-1.8,0.8-3.3c0-1.8-0.5-3.1-1.5-4.2c-1-1-2.3-1.5-4-1.5h-6
		l3.2-8.1c0.3,0.4,0.6,0.7,0.9,1.1c0.5,0.6,1.1,0.8,1.7,0.8h2c2.3,0,4.2,0.7,5.5,2.2C689.2,745,689.9,747.1,689.9,749.9L689.9,749.9
		z"/>
	<path class="st9" d="M706.9,746.6c0,0.8-0.2,2.3-0.5,4.3l-1.3,8.9c-0.2,1.1-0.3,2-0.4,2.8l-1.3-0.6c-0.8-0.4-1.4-0.8-1.6-1.4
		c-0.2-0.4-0.3-1.2-0.3-2.2l0-7.5c0-1.5-0.1-2.5-0.4-2.8c-0.3-0.4-1.1-0.5-2.3-0.5h-7.9l3.2-8.1c0.8,1.1,1.8,1.6,2.9,1.6h4.6
		C705.1,741,706.9,742.8,706.9,746.6L706.9,746.6z"/>
	<path class="st9" d="M728.8,748.3c0,0.9-0.2,2.5-0.6,4.7l-0.8,4.2c-0.3,1.8-0.5,3.3-0.5,4.7v0.3h-7.7c-1,0-2.1,0.1-3.4,0.4l1.3-4.7
		c0.2-0.9,0.8-1.4,1.7-1.4h5.4l0.2-2.9c0-0.3,0-0.7,0-1c0-3.6-1.7-5.4-5-5.4h-0.2c-1.2,0-2,0.3-2.6,0.8c-0.4,0.4-0.7,0.8-0.7,1.2
		l-2.1,10.7c-0.1,0.7-0.3,1.6-0.5,2.6L712,762c-0.8-0.3-1.3-0.7-1.5-1.2c-0.3-0.5-0.3-1.2-0.3-2.2l0.7-8.9c0.1-1.5-0.4-2.2-1.5-2.2
		h-1.6l2.7-8c0.9,1.1,1.8,1.6,2.4,1.6c0.9,0,1.7,0.3,2.4,0.9c0.8,0.8,1.2,1.9,1,3.2c-0.1,0.7,0,1.1,0.2,1.1c0.2,0,0.3-0.2,0.5-0.5
		l1.3-2.3c0.6-1,0.9-1.6,1.2-1.8c0.5-0.5,1.2-0.7,2.2-0.7C726.4,741,728.8,743.4,728.8,748.3L728.8,748.3z"/>
	<path class="st9" d="M641.3,770.5l-1.2,3.9c-0.5,1.5-1.2,2.3-2.1,2.3h-1l-1.6,15l-1.3-0.5c-1.2-0.5-1.9-1.5-2-3.2l-0.8-11.4h-9.5
		l3.2-8c1.2,1.2,2.2,1.8,3.3,1.8H641.3L641.3,770.5z"/>
	<path class="st9" d="M661.4,779.1l-1.1,4.6c-0.7,2.7-1.6,4.7-2.8,5.9c-1.3,1.3-3.1,2-5.3,2h-0.6c-2.1,0-3.8-0.8-4.9-2.5
		c-0.8-1.2-1.4-3.2-1.9-5.8l-1.2-6.7l-2.1,0l3.2-8c0.4,0.4,0.9,0.8,1.3,1.3c0.5,0.4,1.2,0.6,2.1,0.6h8c3.8,0,5.7,1.8,5.7,5.4
		C661.8,776.9,661.7,778,661.4,779.1L661.4,779.1z M656.9,779.5c0.1-2-0.7-3-2.3-3h-5.8l-0.4,3.9c-0.1,0.4-0.1,0.8-0.1,1.2
		c0,2.8,1.2,4.2,3.6,4.2h0.9c2.4,0,3.7-1.5,4-4.4L656.9,779.5L656.9,779.5z"/>
	<path class="st9" d="M682.7,775.6c0,0.7-0.1,1.9-0.3,3.4l-1.6,10.5c-0.1,0.9-0.2,1.6-0.2,2.1l-0.9-0.4c-0.9-0.4-1.5-0.9-1.8-1.4
		c-0.3-0.5-0.5-1.3-0.5-2.2V780c0-1.3-0.2-2.2-0.7-2.7c-0.5-0.5-1.3-0.7-2.5-0.7h-3.8l-2,12.9c-0.2,1.2-0.3,1.9-0.3,2.1l-1.3-0.5
		c-1.2-0.5-1.9-1.8-1.9-3.9v-10.7h-2.3l3.3-8.1c0.6,0.8,1,1.2,1,1.3c0.6,0.5,1.3,0.7,2.3,0.7h8.1c1.5,0,2.8,0.4,3.7,1.3
		C682.1,772.6,682.7,773.9,682.7,775.6L682.7,775.6z"/>
	<path class="st9" d="M712.5,785.6L711,790c-0.3,0.9-0.8,1.3-1.5,1.3h-15.1l1.4-4.1c0.3-0.7,0.5-1.2,0.7-1.3
		c0.2-0.2,0.6-0.3,1.2-0.3h8l0-5.6c0-1.3-0.2-2.2-0.7-2.6c-0.4-0.5-1.3-0.7-2.5-0.7H695l3.2-8.1c0.8,1.3,1.8,2,3.1,2h4.3
		c3.6,0,5.3,1.7,5.3,5.2c0,1-0.1,2.1-0.4,3.4l-1.4,6.6H712.5L712.5,785.6z"/>
	<path class="st9" d="M728.7,775.7c0,0.8-0.2,2.3-0.5,4.3l-1.3,8.9c-0.2,1.1-0.3,2-0.4,2.8l-1.3-0.6c-0.8-0.4-1.4-0.8-1.6-1.4
		c-0.2-0.4-0.3-1.2-0.3-2.2l0-7.5c0-1.5-0.1-2.5-0.4-2.8c-0.3-0.4-1.1-0.5-2.3-0.5h-7.9l3.2-8.1c0.8,1.1,1.8,1.6,2.9,1.6h4.6
		C726.9,770.1,728.7,772,728.7,775.7L728.7,775.7z"/>
</g>
</svg>
