<?xml version="1.0" encoding="utf-8"?>
<!-- Generator: Adobe Illustrator 24.0.0, SVG Export Plug-In . SVG Version: 6.00 Build 0)  -->
<svg version="1.1" id="Layer_1" xmlns="http://www.w3.org/2000/svg" xmlns:xlink="http://www.w3.org/1999/xlink" x="0px" y="0px"
	 viewBox="0 0 1920 1080" style="enable-background:new 0 0 1920 1080;" xml:space="preserve">
<style type="text/css">
	.st0{fill:#C5CFD7;stroke:#5B95AD;stroke-width:14;stroke-miterlimit:10;}
	.st1{clip-path:url(#SVGID_2_);}
	.st2{fill:#C6D8DC;}
	.st3{fill:#E4F4FC;}
	.st4{fill:#CEE5F2;}
	.st5{fill:#C5D9E7;}
	.st6{fill:#F7EAC6;}
	.st7{fill:#E8D48B;}
	.st8{fill:none;}
	.st9{fill:#54538A;}
	.st10{opacity:0.42;}
	.st11{fill:#90AFC8;}
	.st12{opacity:0.8;fill:#A9BFD4;enable-background:new    ;}
	.st13{opacity:0.6;fill:#B5CDDC;enable-background:new    ;}
	.st14{clip-path:url(#SVGID_4_);}
	.st15{fill:#D1E5EC;}
	.st16{fill:#8E6285;}
	.st17{fill:#87236D;}
	.st18{fill:#741C58;}
	.st19{clip-path:url(#SVGID_6_);}
	.st20{fill:#E7D8D0;}
	.st21{fill:#E35D32;}
	.st22{fill:#F26D4A;}
	.st23{fill:#EEE0D8;}
	.st24{fill:#F58E77;}
	.st25{opacity:0.75;fill:#47475B;enable-background:new    ;}
	.st26{fill:#D0E1E7;}
	.st27{fill:none;stroke:#5B95AD;stroke-width:14;stroke-miterlimit:10;}
	.st28{fill:url(#SVGID_7_);stroke:#F6E7BA;stroke-width:9;}
	.st29{fill-rule:evenodd;clip-rule:evenodd;fill:#FFFFFF;stroke:#231F20;stroke-width:0.216;stroke-miterlimit:22.9256;}
	.st30{fill-rule:evenodd;clip-rule:evenodd;fill:url(#SVGID_8_);}
	.st31{fill-rule:evenodd;clip-rule:evenodd;fill:url(#SVGID_9_);}
	.st32{fill:#FFFFFF;}
</style>
<g>
	<path class="st0" d="M480.8,444.2c0,0,0,360.7,0,405.4c0,44.6,27.3,89.3,100.4,89.3s666.9,0,716.5,0c49.6,0,112.8-3.7,112.8-83.1
		s0-405.4,0-405.4L946.4,143.2L480.8,444.2z"/>
	<g>
		<g>
			<g>
				<g>
					<g>
						<defs>
							<rect id="SVGID_1_" x="594.2" y="277.4" width="707" height="359.2"/>
						</defs>
						<clipPath id="SVGID_2_">
							<use xlink:href="#SVGID_1_"  style="overflow:visible;"/>
						</clipPath>
						<g class="st1">
							<rect x="594.1" y="277.4" class="st2" width="707.1" height="359.2"/>
							<g>
								<polygon class="st3" points="1121.6,457 1121.6,315.9 1046.7,315.9 980.8,394.7 980.8,457 								"/>
								<polygon class="st3" points="1121.6,457 1121.6,598.1 1196.6,598.1 1262.4,519.3 1262.4,457 								"/>
								<polygon class="st4" points="1121.6,297.7 1121.6,457 1271.7,457 1244.4,377.3 1185.3,317.4 								"/>
								<polygon class="st5" points="1121.6,457 971.7,457 998.8,553.7 1070.2,606.8 1121.6,612.8 								"/>
								<path class="st6" d="M1121.6,579.8v56.8c-99.2,0-179.6-80.4-179.6-179.6h56.8C998.8,524.7,1053.9,579.8,1121.6,579.8z"/>
								<path class="st7" d="M1301.2,457c0,99.2-80.4,179.6-179.6,179.6v-56.8c67.7,0,122.8-55.1,122.8-122.8H1301.2z"/>
								<path class="st7" d="M1301.2,457h-56.8c0-67.7-55.1-122.8-122.8-122.8v-56.8C1220.8,277.4,1301.2,357.8,1301.2,457z"/>
								<path class="st6" d="M1121.6,277.4v56.8c-67.7,0-122.8,55.1-122.8,122.8H942C942,357.8,1022.4,277.4,1121.6,277.4z"/>
								<polyline class="st8" points="1244.4,457 1121.6,457 998.8,457 								"/>
								<line class="st8" x1="1121.6" y1="277.4" x2="1121.6" y2="259.8"/>
							</g>
							<rect x="594.1" y="277.4" class="st7" width="39.5" height="359.2"/>
							<rect x="674.9" y="335.5" class="st9" width="62.8" height="51"/>
							<rect x="773.9" y="335.5" class="st7" width="44" height="111.1"/>
							<rect x="731.3" y="526.5" class="st7" width="64.6" height="56.6"/>
							<g class="st10">
								<rect x="1034" y="430.4" class="st11" width="110.6" height="33.3"/>
								<rect x="1034" y="469" class="st12" width="110.6" height="33.3"/>
								<rect x="1034" y="507.6" class="st13" width="110.6" height="33.3"/>
							</g>
							<rect x="1264.4" y="277.4" class="st7" width="36.8" height="359.2"/>
						</g>
					</g>
				</g>
			</g>
		</g>
		<g>
			<g>
				<g>
					<g>
						<defs>
							<rect id="SVGID_3_" x="594.2" y="369.3" width="707" height="359.1"/>
						</defs>
						<clipPath id="SVGID_4_">
							<use xlink:href="#SVGID_3_"  style="overflow:visible;"/>
						</clipPath>
						<g class="st14">
							<rect x="594.1" y="369.3" class="st15" width="707.1" height="359.2"/>
							<g>
								<polygon class="st3" points="1121.6,548.9 1121.6,407.8 1046.7,407.8 980.8,486.6 980.8,548.9 								"/>
								<polygon class="st3" points="1121.6,548.9 1121.6,690 1196.6,690 1262.4,611.3 1262.4,548.9 								"/>
								<polygon class="st4" points="1121.6,389.6 1121.6,548.9 1271.7,548.9 1244.4,469.2 1185.3,409.3 								"/>
								<polygon class="st5" points="1121.6,548.9 971.7,548.9 998.8,645.7 1070.2,698.7 1121.6,704.7 								"/>
								<path class="st16" d="M1121.6,671.7v56.8c-99.2,0-179.6-80.4-179.6-179.6h56.8C998.8,616.6,1053.9,671.7,1121.6,671.7z"/>
								<path class="st17" d="M1301.2,548.9c0,99.2-80.4,179.6-179.6,179.6v-56.8c67.7,0,122.8-55.1,122.8-122.8H1301.2z"/>
								<path class="st17" d="M1301.2,548.9h-56.8c0-67.7-55.1-122.8-122.8-122.8v-56.8C1220.8,369.3,1301.2,449.7,1301.2,548.9z"/>
								<path class="st16" d="M1121.6,369.3v56.8c-67.7,0-122.8,55.1-122.8,122.8H942C942,449.7,1022.4,369.3,1121.6,369.3z"/>
								<polyline class="st8" points="1244.4,548.9 1121.6,548.9 998.8,548.9 								"/>
								<line class="st8" x1="1121.6" y1="369.3" x2="1121.6" y2="351.7"/>
							</g>
							<rect x="594.1" y="369.3" class="st18" width="39.5" height="359.2"/>
							<rect x="674.9" y="427.4" class="st9" width="62.8" height="51"/>
							<rect x="773.9" y="427.4" class="st17" width="44" height="111.1"/>
							<rect x="731.3" y="618.4" class="st17" width="64.6" height="56.6"/>
							<g class="st10">
								<rect x="1034" y="522.3" class="st11" width="110.6" height="33.3"/>
								<rect x="1034" y="560.9" class="st12" width="110.6" height="33.3"/>
								<rect x="1034" y="599.6" class="st13" width="110.6" height="33.3"/>
							</g>
							<rect x="1264.4" y="369.3" class="st18" width="36.8" height="359.2"/>
						</g>
					</g>
				</g>
			</g>
		</g>
		<g>
			<g>
				<g>
					<g>
						<defs>
							<rect id="SVGID_5_" x="594.2" y="475.9" width="707" height="359.1"/>
						</defs>
						<clipPath id="SVGID_6_">
							<use xlink:href="#SVGID_5_"  style="overflow:visible;"/>
						</clipPath>
						<g class="st19">
							<rect x="594.1" y="475.9" class="st3" width="707.1" height="359.2"/>
							<g>
								<polygon class="st3" points="1121.6,655.5 1121.6,514.3 1046.7,514.3 980.8,593.1 980.8,655.5 								"/>
								<polygon class="st3" points="1121.6,655.5 1121.6,796.6 1196.6,796.6 1262.4,717.8 1262.4,655.5 								"/>
								<polygon class="st4" points="1121.6,496.2 1121.6,655.5 1271.7,655.5 1244.4,575.8 1185.3,515.9 								"/>
								<polygon class="st5" points="1121.6,655.5 971.7,655.5 998.8,752.2 1070.2,805.3 1121.6,811.3 								"/>
								<path class="st20" d="M1121.6,778.3v56.8c-99.2,0-179.6-80.4-179.6-179.6h56.8C998.8,723.2,1053.9,778.3,1121.6,778.3z"/>
								<path class="st21" d="M1301.2,655.5c0,99.2-80.4,179.6-179.6,179.6v-56.8c67.7,0,122.8-55.1,122.8-122.8H1301.2z"/>
								<path class="st22" d="M1301.2,655.5h-56.8c0-67.7-55.1-122.8-122.8-122.8v-56.8C1220.8,475.9,1301.2,556.3,1301.2,655.5z"/>
								<path class="st23" d="M1121.6,475.9v56.8c-67.7,0-122.8,55.1-122.8,122.8H942C942,556.3,1022.4,475.9,1121.6,475.9z"/>
								<polyline class="st8" points="1244.4,655.5 1121.6,655.5 998.8,655.5 								"/>
								<line class="st8" x1="1121.6" y1="475.9" x2="1121.6" y2="458.3"/>
							</g>
							<rect x="594.1" y="475.9" class="st24" width="39.5" height="359.2"/>
							<rect x="674.9" y="533.9" class="st9" width="62.8" height="51"/>
							<rect x="773.8" y="534" class="st24" width="44" height="111.1"/>
							<rect x="731.3" y="725" class="st24" width="64.6" height="56.6"/>
							<g class="st10">
								<rect x="1034" y="628.9" class="st11" width="110.6" height="33.3"/>
								<rect x="1034" y="667.5" class="st12" width="110.6" height="33.3"/>
								<rect x="1034" y="706.1" class="st13" width="110.6" height="33.3"/>
							</g>
							<rect x="1264.4" y="475.9" class="st24" width="36.8" height="359.2"/>
						</g>
					</g>
				</g>
			</g>
		</g>
	</g>
	<g>
		<g>
			<path class="st3" d="M953.1,568l-7.4,5.4L805,675.6L496.8,899.4l-0.6,0.5l-6.1,7.4c0.8-1.9,1.9-3.6,3.2-5.2
				c1-1.2,2.1-2.2,3.3-3.1c0-0.1-0.1-0.1-0.1-0.2l307.9-223.5l0,0l23.3-16.9l124.9-90.7L953.1,568z"/>
			<path class="st3" d="M953.1,568l-7.4,5.4L805,675.6L496.8,899.4l-0.6,0.5l-6.1,7.4c0.8-1.9,1.9-3.6,3.2-5.2
				c1-1.2,2.1-2.2,3.3-3.1c0-0.1-0.1-0.1-0.1-0.2c-9.2-14.7-13.3-31.9-13.3-49.1V475c0-10.8,2.8-20.9,7.5-29.5l4.2,5l55.2,40.1l0,0
				l66.5,48.3l187.7,136.3l0,0l23.3-16.9l124.9-90.7L953.1,568z"/>
			<polygon class="st25" points="550.1,490.6 827.8,658.3 805,675.6 			"/>
			<path class="st3" d="M1408.1,475v419.1c0,0.7-0.1,5.9-0.1,6.6l-311.1-224.8l308-220.4C1407,461.5,1408.1,468.1,1408.1,475z"/>
			<polygon class="st25" points="1356,490.1 1078.3,657.8 1101.1,675.1 			"/>
			<path class="st3" d="M1406.7,896.2c0,1.1-0.1,2.3-0.2,3.4c-0.3,3.8-1,7.5-2,11c0.8-3.8,0.5-7.8-0.7-11.3c-3,5.8-6.6,10.8-10.7,15
				l2,1.4c-3.1,8.9-13.8,12.3-24.8,13.6c-21.2,8.8-47.2,9.6-70.2,9.6H583.5c-19.8,0-36.2-3.3-49.6-8.9c-9.5-0.6-18.4-5.6-24.3-13.7
				l1-0.7c-5.5-4.9-10.1-10.3-13.9-16.2L805,675.6l140.8-102.2l7.4-5.4l145.7,105.4l0.7,0.5l1.6,1.2h0.1l304.5,220.2L1406.7,896.2z"
				/>
			<path class="st26" d="M1403,897c-1.5-3.2-3.7-6-6.6-8.1l-297-214.8l-135.9-98.3c-3.3-2.4-7.1-3.6-11-3.6c-2.3,0-4.6,0.4-6.8,1.3
				c-1.5,0.6-2.9,1.4-4.2,2.3l-113.7,82.6l-23.3,16.9L496.9,898.6c-0.1,0.1-0.2,0.2-0.4,0.3c-1.2,0.9-2.3,2-3.3,3.1
				c-1.3,1.6-2.4,3.3-3.2,5.2l6.1-7.4l0.6-0.5c3.8,5.9,8.4,11.3,13.9,16.2l441.8-320.8L1393,914.1c4.1-4.2,7.8-9.2,10.7-15
				C1403.6,898.4,1403.3,897.7,1403,897z M1352.6,930H536c-0.7,0-1.4,0-2.1-0.1c13.4,5.6,29.8,8.9,49.6,8.9H1300
				c23.1,0,49-0.8,70.2-9.6C1364,930,1357.7,930,1352.6,930z"/>
		</g>
		<path class="st27" d="M1412.9,450.4c0,0,0,326,0,405.4c0,12.9-1.7,23.8-4.7,33.1c-0.7,2.3-1.6,4.5-2.5,6.5
			c-0.4,0.9-0.8,1.8-1.2,2.7c-0.2,0.4-0.4,0.8-0.6,1.2c-3,5.8-6.6,10.8-10.7,15c-6.5,6.6-14.3,11.5-22.8,15
			c-21.2,8.8-47.2,9.6-70.2,9.6H583.5c-19.8,0-36.2-3.3-49.6-8.9c-9.1-3.8-16.8-8.7-23.3-14.4c-5.5-4.9-10.1-10.3-13.9-16.2
			c-0.1-0.2-0.2-0.3-0.3-0.5c0-0.1-0.1-0.1-0.1-0.2c-9.2-14.7-13.3-31.9-13.3-49.1V475c0-19.2,0-30.7,0-30.7"/>
	</g>
</g>
<g>
	<linearGradient id="SVGID_7_" gradientUnits="userSpaceOnUse" x1="634.3759" y1="885.8235" x2="634.3759" y2="784.6664">
		<stop  offset="5.154639e-03" style="stop-color:#003543"/>
		<stop  offset="9.730822e-02" style="stop-color:#095363"/>
		<stop  offset="0.212" style="stop-color:#137185"/>
		<stop  offset="0.3217" style="stop-color:#1A879D"/>
		<stop  offset="0.4231" style="stop-color:#1F94AB"/>
		<stop  offset="0.5083" style="stop-color:#2099B0"/>
		<stop  offset="0.6157" style="stop-color:#1F96AD"/>
		<stop  offset="0.7076" style="stop-color:#1C8CA2"/>
		<stop  offset="0.7939" style="stop-color:#177C90"/>
		<stop  offset="0.8767" style="stop-color:#0F6578"/>
		<stop  offset="0.9564" style="stop-color:#064858"/>
		<stop  offset="1" style="stop-color:#003543"/>
	</linearGradient>
	<path class="st28" d="M739.4,827.4c-13.4,0-24.3-10.3-24.5-23.1l-15.3,0c-10.1-13.8-35.5-19.5-65.1-19.5c-29.7,0-55,5.8-65.1,19.5
		l-16,0c-0.2,12.8-11,23.1-24.4,23.1l0,43.6c0.5,0,1,0,1.5,0c19.1,0,34.5,6.6,34.8,14.9h139.3c0.3-8.2,15.7-14.9,34.8-14.9
		c0.2,0,0.5,0,0.7,0v-43.6C739.7,827.3,739.5,827.4,739.4,827.4L739.4,827.4z"/>
	<path class="st29" d="M601.7,853.3c0,3-2.2,6.7-5,8.2l-17,9.2c-2.8,1.5-7.3,1.5-10.1,0l-17-9.2c-2.8-1.5-5-5.2-5-8.2l0-18.7
		c0-3,2.2-6.7,5-8.2l17-9.3c2.8-1.5,7.3-1.5,10.1,0l17,9.3c2.7,1.5,5,5.2,5,8.2V853.3L601.7,853.3z"/>
	<linearGradient id="SVGID_8_" gradientUnits="userSpaceOnUse" x1="549.4559" y1="844.0099" x2="599.9783" y2="844.0099">
		<stop  offset="5.154639e-03" style="stop-color:#003543"/>
		<stop  offset="9.730822e-02" style="stop-color:#095363"/>
		<stop  offset="0.212" style="stop-color:#137185"/>
		<stop  offset="0.3217" style="stop-color:#1A879D"/>
		<stop  offset="0.4231" style="stop-color:#1F94AB"/>
		<stop  offset="0.5083" style="stop-color:#2099B0"/>
		<stop  offset="0.6157" style="stop-color:#1F96AD"/>
		<stop  offset="0.7076" style="stop-color:#1C8CA2"/>
		<stop  offset="0.7939" style="stop-color:#177C90"/>
		<stop  offset="0.8767" style="stop-color:#0F6578"/>
		<stop  offset="0.9564" style="stop-color:#064858"/>
		<stop  offset="1" style="stop-color:#003543"/>
	</linearGradient>
	<path class="st30" d="M579.6,819.1L579.6,819.1l15.6,8.5c1.3,0.8,2.5,2,3.4,3.4c0.9,1.5,1.4,3.1,1.4,4.5v17.1
		c0,1.4-0.5,3.1-1.4,4.5c-0.9,1.4-2.1,2.7-3.4,3.4l-15.6,8.5c-1.4,0.8-3.1,1.2-4.8,1.2v-0.8c1.6,0,3.2-0.3,4.4-1l15.5-8.5
		c1.2-0.6,2.3-1.8,3.1-3.1c0.7-1.3,1.3-2.7,1.3-4v-17.1c0-1.3-0.5-2.8-1.3-4.1c-0.8-1.3-1.9-2.5-3.1-3.1l-15.5-8.5
		c-1.2-0.7-2.9-1-4.4-1V818C576.5,818,578.2,818.3,579.6,819.1L579.6,819.1L579.6,819.1z M574.7,870L574.7,870
		c-1.8,0-3.5-0.4-4.8-1.2l-15.6-8.5c-1.3-0.7-2.5-2-3.4-3.4c-0.9-1.4-1.4-3.1-1.4-4.5v-17.1c0-1.5,0.5-3.1,1.4-4.5
		c0.9-1.4,2.1-2.6,3.4-3.4l15.6-8.5c1.4-0.8,3.1-1.1,4.8-1.1v0.8c-1.6,0-3.2,0.3-4.4,1l-15.5,8.5c-1.2,0.6-2.3,1.8-3.1,3.1
		c-0.7,1.3-1.3,2.7-1.3,4.1v17.1c0,1.3,0.5,2.7,1.3,4c0.8,1.3,1.9,2.5,3.1,3.1l15.5,8.5c1.2,0.7,2.9,1,4.4,1V870L574.7,870z"/>
	<linearGradient id="SVGID_9_" gradientUnits="userSpaceOnUse" x1="558.1027" y1="844.6089" x2="589.4009" y2="844.6089">
		<stop  offset="5.154639e-03" style="stop-color:#003543"/>
		<stop  offset="9.730822e-02" style="stop-color:#095363"/>
		<stop  offset="0.212" style="stop-color:#137185"/>
		<stop  offset="0.3217" style="stop-color:#1A879D"/>
		<stop  offset="0.4231" style="stop-color:#1F94AB"/>
		<stop  offset="0.5083" style="stop-color:#2099B0"/>
		<stop  offset="0.6157" style="stop-color:#1F96AD"/>
		<stop  offset="0.7076" style="stop-color:#1C8CA2"/>
		<stop  offset="0.7939" style="stop-color:#177C90"/>
		<stop  offset="0.8767" style="stop-color:#0F6578"/>
		<stop  offset="0.9564" style="stop-color:#064858"/>
		<stop  offset="1" style="stop-color:#003543"/>
	</linearGradient>
	<path class="st31" d="M585.7,845.7c0,0,1-10.1,1.1-11.4l2.5-4c0.1-0.1,0.1-0.3,0.1-0.5c-0.1-0.2-0.3-0.3-0.5-0.3l-10.6-1.6v1.1
		c3.3,0.5,8.4,1.3,9.5,1.5c-0.5,0.9-1.6,2.6-1.9,3c-0.5-0.1-4.2-0.6-7.6-1v1.2c2,0.3,4,0.5,5.6,0.7l-5.6,2.2v1.3
		c3.2-1.3,6.4-2.5,7.1-2.9c-0.1,1.6-1,9.6-1,10.2c-0.3,0.1-3.1,1-6.1,2v1.2c2.7-0.8,5.4-1.7,6.1-1.9c-0.1,1.3-0.6,5.5-0.6,6.1
		c-0.4,0.1-2.9,0.9-5.4,1.7v1.2l5.4-1.7l0.1,2.3c-0.3,0.2-0.5,0.5-0.5,0.9c0,0.7,0.6,1.2,1.3,1.2c0.7,0,1.2-0.5,1.2-1.2
		c0-0.4-0.3-0.9-0.7-1l-0.2-2.9L585.7,845.7L585.7,845.7z M578.3,827.9l-2.9-0.4c-0.2-0.1-0.5,0.1-0.6,0.3l-3,4.2l-7.2,3.1v1.3
		l7.8-3.4c0.7,0.1,3.2,0.4,5.9,0.8v-1.2c-2.3-0.3-4.4-0.6-5-0.6c0.7-1,2-2.7,2.3-3.2c0.2,0,1.3,0.2,2.7,0.4V827.9L578.3,827.9z
		 M564.6,849.6l3.9,0.9l-3.9,1.5v1.3c2.7-1,6.1-2.4,6.1-2.4c0,0,3.9-1.2,7.6-2.4v-1.2c-2.8,0.9-5.8,1.8-7.1,2.3l0-8.8
		c1-0.4,4.1-1.6,7.1-2.8v-1.3l-7.9,3.1l-5.8-1.1v1.2c2.5,0.4,4.8,0.9,5.2,1l0,8.7c-0.7-0.2-3.1-0.7-5.2-1.2V849.6L564.6,849.6z
		 M564.6,858.8c0.1-0.1,0.1-0.2,0.1-0.3c0-0.1,0-0.2-0.1-0.3V858.8L564.6,858.8z M564.6,855.6v-1.2c3.1,0.7,7.5,1.6,7.7,1.7
		c0.2-0.1,3.1-1,6-1.8v1.2l-5.3,1.6v2.5c0.4,0.2,0.8,0.6,0.8,1.1c0,0.6-0.6,1.2-1.3,1.2c-0.7,0-1.2-0.5-1.2-1.2c0-0.4,0.2-0.8,0.5-1
		v-2.6L564.6,855.6L564.6,855.6z M564.6,835l-6.2,2.7h-0.1l-0.1,0.1h-0.1v0.1c0,0-0.1,0-0.1,0.1c0,0.1-0.1,0.1-0.1,0.1v0.1v0.1v0.1
		l1.5,9.8c0.1,0.2,0.3,0.4,0.5,0.5l4.6,1.1v-1.2c-1.8-0.4-3.5-0.8-3.8-0.9c-0.1-0.6-1.2-7.3-1.4-8.5c0.7,0.1,2.9,0.5,5.2,1v-1.2
		l-3.9-0.7l3.9-1.7V835L564.6,835z M564.6,851.9l-4.3,1.7c-0.3,0.1-0.4,0.3-0.4,0.6c0,0.3,0.2,0.5,0.5,0.6l2.3,0.4v2.3v0.1
		c-0.3,0.3-0.5,0.6-0.5,1c0,0.6,0.6,1.2,1.3,1.2c0.5,0,1-0.4,1.2-0.9v-0.6c-0.1-0.4-0.3-0.6-0.7-0.8v-2l0.7,0.1v-1.2
		c-0.3-0.1-0.7-0.1-1-0.2c-0.1-0.1-0.1-0.1-0.3-0.1c-0.3-0.1-0.5-0.1-0.7-0.2c0.5-0.2,1.3-0.4,2-0.8V851.9L564.6,851.9z"/>
	<path class="st32" d="M612.8,817.9c0,0.2,0,0.4-0.1,0.7l-0.3,2c0,0.2,0,0.3,0,0.4l-0.2-0.1c-0.2-0.1-0.3-0.2-0.3-0.3
		c-0.1-0.1-0.1-0.2-0.1-0.4v-1.5c0-0.3,0-0.4-0.1-0.5c-0.1-0.1-0.2-0.1-0.5-0.1h-1.9l0.6-1.6c0.2,0.2,0.3,0.4,0.5,0.4h1.4
		c0.3,0,0.5,0.1,0.7,0.2C612.7,817.3,612.8,817.6,612.8,817.9L612.8,817.9z M610.5,819.4l-0.3,1.2c0,0.2-0.1,0.3-0.1,0.4L610,821
		c-0.3-0.1-0.4-0.3-0.4-0.7l0-1c0-0.2-0.1-0.4-0.2-0.5h0.8c0.3,0,0.4,0.1,0.4,0.3C610.5,819.2,610.5,819.3,610.5,819.4L610.5,819.4z
		"/>
	<path class="st32" d="M616.8,818.1l-0.5,1.6c-0.1,0.4-0.2,0.7-0.4,0.8c-0.1,0.1-0.3,0.2-0.6,0.3l-0.3,0.1c-0.1,0-0.2,0.1-0.3,0.1
		l0.2-1c0-0.2,0.1-0.3,0.2-0.3l0.3-0.1c0.1,0,0.3-0.1,0.3-0.2c0-0.1,0.1-0.2,0.1-0.4l0.1-0.7c0-0.1,0-0.2-0.1-0.2h-2.6l0.6-1.6
		c0.2,0.2,0.4,0.4,0.7,0.4h1.7c0.5,0,0.7,0.2,0.7,0.6C616.9,817.7,616.9,817.9,616.8,818.1L616.8,818.1z M614.5,819.2l-0.3,2.7
		c0,0.2,0,0.3,0,0.4l-0.3-0.1c-0.2-0.1-0.3-0.3-0.3-0.7l-0.1-2.4c0-0.2-0.1-0.4-0.2-0.5h0.7c0.2,0,0.3,0,0.3,0.1
		c0.1,0.1,0.1,0.2,0.1,0.3C614.5,819.1,614.5,819.2,614.5,819.2L614.5,819.2z"/>
	<path class="st32" d="M621,816.9l-0.2,0.8c-0.1,0.3-0.2,0.4-0.4,0.4h-0.2l-0.3,2.9l-0.2-0.1c-0.2-0.1-0.4-0.3-0.4-0.6l-0.2-2.2
		h-1.8l0.6-1.5c0.2,0.2,0.4,0.4,0.6,0.4H621L621,816.9z"/>
	<path class="st32" d="M624.8,817.5c0,0.2-0.1,0.5-0.3,0.8l-0.7,1c0.2,0.3,0.3,0.4,0.3,0.4c0.2,0.2,0.4,0.4,0.5,0.5l-0.3,0.4
		c-0.1,0.1-0.2,0.3-0.2,0.4h-2.5c-0.2,0-0.3,0-0.5,0.1l0.2-0.7c0.1-0.2,0.1-0.3,0.2-0.4c0-0.1,0.1-0.1,0.2-0.1h1.5
		c-0.2-0.1-0.5-0.4-0.8-0.7c-0.2-0.3-0.4-0.5-0.6-0.8c-0.1-0.2-0.3-0.3-0.5-0.3h-0.3l0.5-1.6c0.1,0.1,0.1,0.2,0.2,0.2
		c0.1,0,0.1,0.1,0.2,0.1c0.3,0,0.4,0.2,0.6,0.5c0.2,0.5,0.5,1,0.8,1.5c0.1-0.2,0.2-0.4,0.2-0.6c0-0.2-0.1-0.3-0.3-0.3l-0.2,0
		l0.4-1.3c0.1,0.1,0.2,0.2,0.2,0.2c0.1,0.1,0.2,0.1,0.3,0.1h0.1C624.6,816.9,624.8,817.1,624.8,817.5L624.8,817.5z"/>
	<path class="st32" d="M631.1,818.1c0,0.2,0,0.4-0.1,0.7l-0.2,1.7c0,0.2,0,0.4,0,0.5l-0.3-0.1c-0.2-0.1-0.3-0.2-0.3-0.3
		c0-0.1,0-0.2,0-0.4v-1.5c0-0.4-0.2-0.6-0.5-0.6h-0.7l-0.2,1.8c0,0.3,0,0.6,0,1l-0.9,0c-0.3,0-0.6,0.1-0.8,0.2l0.3-1
		c0-0.1,0.1-0.2,0.1-0.2c0-0.1,0.1-0.1,0.2-0.1h0.5l-0.1-1.7h-0.7l0.6-1.6c0.2,0.2,0.4,0.4,0.6,0.4h1.4
		C630.7,816.9,631.1,817.3,631.1,818.1L631.1,818.1z"/>
	<path class="st32" d="M634.8,818.5c0,0.3-0.1,0.8-0.3,1.4l-0.2,0.6c-0.1,0.2-0.1,0.4-0.1,0.5h-2.4c-0.1,0-0.3,0-0.4,0.1l0.3-0.9
		c0-0.1,0.1-0.2,0.1-0.2c0-0.1,0.1-0.1,0.2-0.1h1.8l0-0.6c0-0.4,0-0.7-0.2-0.9c-0.2-0.2-0.4-0.3-0.7-0.3h-0.7l0,0.2
		c0,0.3,0.1,0.4,0.3,0.4h0.4l-0.2,0.5c-0.1,0.2-0.1,0.3-0.3,0.3c-0.1,0-0.2,0-0.4,0c-0.4,0-0.6-0.2-0.6-0.6c0-0.1,0-0.3,0.1-0.5
		l0.6-1.9c0.1,0.1,0.1,0.1,0.2,0.2c0.1,0.1,0.2,0.1,0.3,0.1h0.4C634.2,816.9,634.8,817.4,634.8,818.5L634.8,818.5z"/>
	<path class="st32" d="M636.8,817.5c0,0.1,0,0.3-0.1,0.8l-0.3,2.3c0,0.3-0.1,0.4-0.1,0.5l-0.2-0.1c-0.2-0.1-0.3-0.2-0.3-0.3
		c0-0.1-0.1-0.2-0.1-0.4v-1.7c0-0.3-0.1-0.4-0.3-0.4h-0.3l0.5-1.5c0.1,0.1,0.1,0.1,0.2,0.2c0.1,0.1,0.2,0.1,0.3,0.1
		C636.6,816.9,636.8,817.1,636.8,817.5L636.8,817.5z"/>
	<path class="st32" d="M640.8,818.1l-0.5,1.6c-0.1,0.4-0.2,0.7-0.4,0.8c-0.1,0.1-0.3,0.2-0.6,0.3l-0.3,0.1c-0.1,0-0.2,0.1-0.3,0.1
		l0.2-1c0-0.2,0.1-0.3,0.2-0.3l0.3-0.1c0.1,0,0.3-0.1,0.3-0.2c0-0.1,0.1-0.2,0.1-0.4l0.1-0.7c0-0.1,0-0.2-0.1-0.2h-2.6l0.6-1.6
		c0.2,0.2,0.4,0.4,0.7,0.4h1.7c0.5,0,0.7,0.2,0.7,0.6C640.9,817.7,640.9,817.9,640.8,818.1L640.8,818.1z M638.5,819.2l-0.3,2.7
		c0,0.2,0,0.3,0,0.4l-0.3-0.1c-0.2-0.1-0.3-0.3-0.3-0.7l-0.1-2.4c0-0.2-0.1-0.4-0.2-0.5h0.7c0.2,0,0.3,0,0.3,0.1
		c0.1,0.1,0.1,0.2,0.1,0.3C638.5,819.1,638.5,819.2,638.5,819.2L638.5,819.2z"/>
	<path class="st32" d="M612.3,827c0,0.1,0,0.3-0.1,0.6l-0.3,3c0,0.3,0,0.5,0,0.7l-0.3-0.1c-0.2-0.1-0.3-0.2-0.3-0.3
		c0-0.1-0.1-0.2-0.1-0.4l0-2.9c0-0.4-0.2-0.5-0.5-0.5h-1.6l0.6-1.6c0.1,0.1,0.2,0.2,0.2,0.2c0.1,0.1,0.2,0.1,0.3,0.1h0.7
		c0.4,0,0.7,0.1,0.9,0.2C612.2,826.3,612.3,826.6,612.3,827L612.3,827z"/>
	<path class="st32" d="M615.7,826.9c0,0.2,0,0.4-0.1,0.8l-0.3,1.7c0,0.2-0.1,0.4-0.1,0.5l-0.2-0.1c-0.2-0.1-0.3-0.2-0.3-0.3
		c0-0.1-0.1-0.2-0.1-0.4l0-1.5c0-0.3,0-0.5-0.1-0.5c-0.1-0.1-0.2-0.1-0.4-0.1h-1.5l0.6-1.6c0.2,0.2,0.3,0.3,0.5,0.3h0.9
		C615.4,825.8,615.7,826.2,615.7,826.9L615.7,826.9z"/>
	<path class="st32" d="M617.8,826.5c0,0.1,0,0.3-0.1,0.6l-0.3,1.2c0,0.2-0.1,0.4-0.1,0.5l-0.2-0.1c-0.2-0.1-0.3-0.3-0.3-0.7l0-0.5
		c0-0.2,0-0.3-0.1-0.3c0-0.1-0.1-0.1-0.2-0.1h-0.4l0.5-1.6c0.1,0.1,0.2,0.2,0.2,0.2c0.1,0.1,0.2,0.1,0.2,0.1
		C617.5,825.9,617.8,826.1,617.8,826.5L617.8,826.5z"/>
	<path class="st32" d="M621.8,826.7l-0.4,1.7c-0.1,0.5-0.3,0.9-0.5,1.1c-0.2,0.2-0.6,0.4-1,0.4h-1.4c-0.3,0-0.5,0.1-0.6,0.2l0.3-1
		c0-0.2,0.1-0.2,0.3-0.2h0.6l-0.3-1.4c0-0.1-0.1-0.2-0.1-0.3c0-0.1-0.1-0.1-0.2-0.1h-0.4l0.5-1.6c0.2,0.2,0.4,0.4,0.6,0.4
		s0.4,0,0.5,0.1c0.1,0.1,0.2,0.3,0.2,0.6l-0.2,2.2h0.4c0.3,0,0.5-0.1,0.6-0.2c0.1-0.1,0.2-0.4,0.2-0.7v-0.5c0-0.2-0.1-0.3-0.2-0.3
		h-0.5l0.5-1.5c0.2,0.2,0.4,0.4,0.6,0.4c0.4,0,0.7,0.2,0.7,0.6C621.9,826.5,621.8,826.6,621.8,826.7L621.8,826.7z"/>
	<path class="st32" d="M626,826.5c0,0.1,0,0.3-0.1,0.6l-0.3,1.2c0,0.2-0.1,0.4-0.1,0.5l-0.2-0.1c-0.2-0.1-0.3-0.3-0.3-0.7l0-0.5
		c0-0.2,0-0.3-0.1-0.3c0-0.1-0.1-0.1-0.2-0.1h-0.4l0.5-1.6c0.1,0.1,0.2,0.2,0.2,0.2c0.1,0.1,0.2,0.1,0.2,0.1
		C625.7,825.9,626,826.1,626,826.5L626,826.5z"/>
	<path class="st32" d="M628,826.5c0,0.1,0,0.3-0.1,0.6l-0.3,1.2c0,0.2-0.1,0.4-0.1,0.5l-0.2-0.1c-0.2-0.1-0.3-0.3-0.3-0.7l0-0.5
		c0-0.2,0-0.3-0.1-0.3c0-0.1-0.1-0.1-0.2-0.1h-0.4l0.5-1.6c0.1,0.1,0.2,0.2,0.2,0.2c0.1,0.1,0.2,0.1,0.2,0.1
		C627.7,825.9,628,826.1,628,826.5L628,826.5z"/>
	<path class="st32" d="M630.3,826.6c0,0.1,0,0.3-0.1,0.8l-0.2,1.8c0,0.3,0,0.5,0,0.7h-1.2c-0.2,0-0.4,0-0.6,0.1l0.3-1
		c0-0.1,0.1-0.2,0.1-0.2c0,0,0.1-0.1,0.2-0.1h0.7l-0.1-1.3c0-0.2,0-0.3-0.1-0.4c-0.1-0.1-0.2-0.1-0.3-0.1h-0.5l0.5-1.6
		c0.1,0.1,0.1,0.1,0.2,0.2c0.1,0.1,0.2,0.1,0.3,0.1c0.3,0,0.5,0.1,0.6,0.2C630.2,826.1,630.3,826.3,630.3,826.6L630.3,826.6z"/>
	<path class="st32" d="M634.3,826.7l-0.4,1.7c-0.1,0.5-0.3,0.9-0.5,1.1c-0.2,0.2-0.6,0.4-1,0.4h-1.4c-0.3,0-0.5,0.1-0.6,0.2l0.3-1
		c0-0.2,0.1-0.2,0.3-0.2h0.6l-0.3-1.4c0-0.1-0.1-0.2-0.1-0.3c0-0.1-0.1-0.1-0.2-0.1h-0.4l0.5-1.6c0.2,0.2,0.4,0.4,0.6,0.4
		c0.2,0,0.4,0,0.5,0.1c0.1,0.1,0.2,0.3,0.2,0.6l-0.2,2.2h0.4c0.3,0,0.5-0.1,0.6-0.2s0.2-0.4,0.2-0.7v-0.5c0-0.2-0.1-0.3-0.2-0.3
		h-0.5l0.5-1.5c0.2,0.2,0.4,0.4,0.6,0.4c0.4,0,0.7,0.2,0.7,0.6C634.4,826.5,634.4,826.6,634.3,826.7L634.3,826.7z"/>
	<path class="st32" d="M637.6,826.8l-0.5,1.9c-0.1,0.4-0.3,0.7-0.5,0.8c-0.1,0.1-0.4,0.2-0.6,0.3l-0.4,0.1c-0.1,0-0.2,0.1-0.3,0.1
		l0.2-1c0-0.1,0-0.2,0.1-0.2c0,0,0.1-0.1,0.1-0.1l0.4-0.1c0.3-0.1,0.5-0.3,0.5-0.8l0.1-0.7c0-0.2,0-0.2-0.2-0.2h-1.7
		c0.1-0.1,0.1-0.3,0.1-0.5v-1c0-0.3-0.1-0.5-0.4-0.5l-0.1,0l0.5-1.2c0.1,0.1,0.2,0.2,0.3,0.3c0.2,0.1,0.4,0.2,0.5,0.3
		c0.1,0.1,0.1,0.2,0.1,0.4c0,0.1,0,0.2-0.1,0.4l-0.2,0.8h1.6c0.5,0,0.7,0.2,0.7,0.7C637.7,826.6,637.7,826.7,637.6,826.8
		L637.6,826.8z"/>
	<path class="st32" d="M611,835.4c0,0.1,0,0.4-0.1,0.7l-0.3,3.3c0,0.3,0,0.6,0,0.7l-0.2-0.1c-0.1,0-0.2-0.1-0.3-0.2
		c-0.1-0.1-0.1-0.2-0.1-0.4v-3.2c0-0.2-0.1-0.4-0.4-0.4h-0.3l0.5-1.5c0.1,0.1,0.1,0.1,0.2,0.2c0.1,0.1,0.2,0.1,0.3,0.1
		C610.8,834.7,611,835,611,835.4L611,835.4z"/>
	<path class="st32" d="M615,835.7l-0.4,1.7c-0.1,0.5-0.3,0.9-0.5,1.1c-0.2,0.2-0.6,0.4-1,0.4h-1.4c-0.3,0-0.5,0.1-0.6,0.2l0.3-1
		c0-0.2,0.1-0.2,0.3-0.2h0.6l-0.3-1.4c0-0.1-0.1-0.2-0.1-0.3c0-0.1-0.1-0.1-0.2-0.1h-0.4l0.5-1.6c0.2,0.2,0.4,0.4,0.6,0.4
		s0.4,0,0.5,0.1c0.1,0.1,0.2,0.3,0.2,0.6l-0.2,2.2h0.4c0.3,0,0.5-0.1,0.6-0.2s0.2-0.4,0.2-0.7v-0.5c0-0.2-0.1-0.3-0.2-0.3h-0.5
		l0.5-1.5c0.2,0.2,0.4,0.4,0.6,0.4c0.4,0,0.7,0.2,0.7,0.6C615.1,835.5,615.1,835.5,615,835.7L615,835.7z"/>
	<path class="st32" d="M618.7,836.4c0,0.3-0.1,0.8-0.3,1.4l-0.2,0.6c-0.1,0.2-0.1,0.4-0.1,0.5h-2.4c-0.1,0-0.3,0-0.4,0.1l0.3-0.9
		c0-0.1,0.1-0.2,0.1-0.2c0-0.1,0.1-0.1,0.2-0.1h1.8l0-0.6c0-0.4,0-0.7-0.2-0.9c-0.2-0.2-0.4-0.3-0.7-0.3h-0.7l0,0.2
		c0,0.3,0.1,0.4,0.3,0.4h0.4l-0.2,0.5c-0.1,0.2-0.1,0.3-0.3,0.3c-0.1,0-0.2,0-0.4,0c-0.4,0-0.6-0.2-0.6-0.6c0-0.1,0-0.3,0.1-0.5
		l0.6-1.9c0.1,0.1,0.1,0.1,0.2,0.2c0.1,0.1,0.2,0.1,0.3,0.1h0.4C618.2,834.7,618.7,835.3,618.7,836.4L618.7,836.4z"/>
	<path class="st32" d="M622.1,835.8c0,0.2,0,0.4-0.1,0.8l-0.3,1.7c0,0.2-0.1,0.4-0.1,0.5l-0.2-0.1c-0.2-0.1-0.3-0.2-0.3-0.3
		c0-0.1-0.1-0.2-0.1-0.4l0-1.5c0-0.3,0-0.5-0.1-0.5c-0.1-0.1-0.2-0.1-0.4-0.1H619l0.6-1.6c0.2,0.2,0.3,0.3,0.5,0.3h0.9
		C621.8,834.7,622.1,835.1,622.1,835.8L622.1,835.8z"/>
	<path class="st32" d="M626.2,835.7l-0.4,1.7c-0.1,0.5-0.3,0.9-0.5,1.1c-0.2,0.2-0.6,0.4-1,0.4h-1.4c-0.3,0-0.5,0.1-0.6,0.2l0.3-1
		c0-0.2,0.1-0.2,0.3-0.2h0.6l-0.3-1.4c0-0.1-0.1-0.2-0.1-0.3c0-0.1-0.1-0.1-0.2-0.1h-0.4l0.5-1.6c0.2,0.2,0.4,0.4,0.6,0.4
		c0.2,0,0.4,0,0.5,0.1c0.1,0.1,0.2,0.3,0.2,0.6l-0.2,2.2h0.4c0.3,0,0.5-0.1,0.6-0.2c0.1-0.1,0.2-0.4,0.2-0.7v-0.5
		c0-0.2-0.1-0.3-0.2-0.3h-0.5l0.5-1.5c0.2,0.2,0.4,0.4,0.6,0.4c0.4,0,0.7,0.2,0.7,0.6C626.2,835.5,626.2,835.5,626.2,835.7
		L626.2,835.7z"/>
	<path class="st32" d="M628.2,835.4c0,0.1,0,0.3-0.1,0.8l-0.3,2.3c0,0.3-0.1,0.4-0.1,0.5l-0.2-0.1c-0.2-0.1-0.3-0.2-0.3-0.3
		c0-0.1-0.1-0.2-0.1-0.4v-1.7c0-0.3-0.1-0.4-0.3-0.4h-0.3l0.5-1.5c0.1,0.1,0.1,0.1,0.2,0.2c0.1,0.1,0.2,0.1,0.3,0.1
		C627.9,834.8,628.2,835,628.2,835.4L628.2,835.4z"/>
	<path class="st32" d="M630.2,835.4c0,0.1,0,0.3-0.1,0.8l-0.3,2.3c0,0.3-0.1,0.4-0.1,0.5l-0.2-0.1c-0.2-0.1-0.3-0.2-0.3-0.3
		c0-0.1-0.1-0.2-0.1-0.4v-1.7c0-0.3-0.1-0.4-0.3-0.4h-0.3l0.5-1.5c0.1,0.1,0.1,0.1,0.2,0.2c0.1,0.1,0.2,0.1,0.3,0.1
		C629.9,834.8,630.2,835,630.2,835.4L630.2,835.4z"/>
	<path class="st32" d="M634.4,835.9c0,0.2,0,0.4-0.1,0.6l-0.2,0.8c-0.2,0.7-0.3,1.1-0.4,1.3c-0.1,0.2-0.3,0.3-0.5,0.3h-1.5
		c-0.2,0-0.4,0-0.5,0.1c0-0.3,0-0.6,0-1.1l-0.2-1.5c0-0.1,0-0.2-0.1-0.2c0,0-0.1-0.1-0.2-0.1h-0.3l0.5-1.5c0.1,0.1,0.1,0.1,0.2,0.2
		c0.1,0.1,0.2,0.1,0.3,0.1c0.4,0,0.6,0.2,0.6,0.6c0,0,0,0.1,0,0.2l-0.3,2.1c0,0.1,0,0.2,0.1,0.2h1.2c0.1,0,0.2,0,0.2-0.1
		c0.1-0.2,0.2-0.5,0.2-0.9v0c0-0.2-0.1-0.4-0.2-0.5c-0.1-0.1-0.3-0.2-0.4-0.2h-0.2c-0.2,0-0.3,0.1-0.4,0.2l0,0l0.3-1
		c0.1-0.2,0.1-0.3,0.2-0.4c0.1-0.1,0.3-0.1,0.5-0.1c0.3,0,0.6,0.1,0.8,0.3C634.3,835.3,634.4,835.5,634.4,835.9L634.4,835.9z"/>
	<path class="st32" d="M636.7,835.6c0,0.1,0,0.3-0.1,0.8l-0.2,1.8c0,0.3,0,0.5,0,0.7h-1.2c-0.2,0-0.4,0-0.6,0.1l0.3-1
		c0-0.1,0.1-0.2,0.1-0.2c0,0,0.1-0.1,0.2-0.1h0.7l-0.1-1.3c0-0.2,0-0.3-0.1-0.4c-0.1-0.1-0.2-0.1-0.3-0.1h-0.5l0.5-1.6
		c0.1,0.1,0.1,0.1,0.2,0.2c0.1,0.1,0.2,0.1,0.3,0.1c0.3,0,0.5,0.1,0.6,0.2C636.6,835,636.7,835.2,636.7,835.6L636.7,835.6z"/>
	<path class="st32" d="M640.7,835.3c0,0.2-0.1,0.4-0.2,0.6l-0.6,1l0.7,0.7c0.1,0.1,0.2,0.3,0.2,0.4c0,0.1,0,0.2-0.1,0.4l-0.3,0.6
		c0-0.1-0.1-0.2-0.2-0.4l-1.9-1.8l-0.1,0.5c0,0.1,0,0.1,0,0.2c0,0.2,0.1,0.2,0.2,0.2l0.2,0c0.2,0,0.2,0.1,0.2,0.2c0,0,0,0.1,0,0.2
		l-0.3,0.9c-0.1-0.1-0.2-0.2-0.3-0.2l-0.5,0c-0.3,0-0.4-0.2-0.4-0.5c0-0.1,0-0.3,0.1-0.5l0.5-1.1c0,0,0-0.1,0-0.1
		c0-0.1,0-0.2-0.1-0.2l-0.3-0.3c-0.1-0.1-0.2-0.3-0.2-0.4c0-0.1,0-0.2,0.1-0.3l0.4-0.9c0,0.3,0.1,0.5,0.3,0.6l1.6,1.6
		c0.1-0.3,0.2-0.4,0.2-0.5c0-0.2-0.1-0.3-0.3-0.3l-0.2,0l0.4-1.3c0.2,0.2,0.3,0.3,0.5,0.3C640.5,834.7,640.7,834.9,640.7,835.3
		L640.7,835.3z"/>
	<path class="st32" d="M659.5,817.9l-1.3,4.4c-0.3,0.8-0.5,1.3-0.8,1.5c-0.2,0.1-0.8,0.2-1.8,0.2l-1.3,12.4
		c-0.1,1.2-0.2,2.2-0.2,2.7l-1.5-0.6c-1.1-0.4-1.8-1.5-1.9-3.2l-0.8-11.4h-3.5l3.2-8.1c0.8,1.3,2.1,1.9,3.8,1.9H659.5L659.5,817.9z"
		/>
	<path class="st32" d="M675.5,826.5c0,1.7-0.4,3.8-1.1,6.3c-0.8,2.6-1.8,4.6-2.8,6h-10.1c-0.7,0-1.3,0.2-1.9,0.5l1.3-4.1
		c0.2-0.8,0.4-1.3,0.6-1.5c0.2-0.3,0.7-0.5,1.3-0.5h7.9c0.6-0.7,0.8-1.8,0.8-3.3c0-1.8-0.5-3.1-1.5-4.2c-1-1-2.3-1.5-4-1.5h-6
		l3.2-8.1c0.3,0.4,0.6,0.7,0.9,1.1c0.5,0.6,1.1,0.8,1.7,0.8h2c2.3,0,4.2,0.7,5.5,2.2C674.8,821.6,675.5,823.7,675.5,826.5
		L675.5,826.5z"/>
	<path class="st32" d="M692.5,823.2c0,0.8-0.2,2.3-0.5,4.3l-1.3,8.9c-0.2,1.1-0.3,2-0.4,2.8l-1.3-0.6c-0.8-0.4-1.4-0.8-1.6-1.4
		c-0.2-0.4-0.3-1.2-0.3-2.2l0-7.5c0-1.5-0.1-2.5-0.4-2.8c-0.3-0.4-1.1-0.5-2.3-0.5h-7.9l3.2-8.1c0.8,1.1,1.8,1.6,2.9,1.6h4.6
		C690.7,817.6,692.5,819.4,692.5,823.2L692.5,823.2z"/>
	<path class="st32" d="M714.4,824.9c0,0.9-0.2,2.5-0.6,4.7l-0.8,4.2c-0.3,1.8-0.5,3.3-0.5,4.7v0.3h-7.7c-1,0-2.1,0.1-3.4,0.4
		l1.3-4.7c0.2-0.9,0.8-1.4,1.7-1.4h5.4l0.2-2.9c0-0.3,0-0.7,0-1c0-3.6-1.7-5.4-5-5.4h-0.2c-1.2,0-2,0.3-2.6,0.8
		c-0.4,0.4-0.7,0.8-0.7,1.2l-2.1,10.7c-0.1,0.7-0.3,1.6-0.5,2.6l-1.2-0.6c-0.8-0.3-1.3-0.7-1.5-1.2c-0.3-0.5-0.3-1.2-0.3-2.2
		l0.7-8.9c0.1-1.5-0.4-2.2-1.5-2.2h-1.6l2.7-8c0.9,1.1,1.8,1.6,2.4,1.6c0.9,0,1.7,0.3,2.4,0.9c0.8,0.8,1.2,1.9,1,3.2
		c-0.1,0.7,0,1.1,0.2,1.1c0.2,0,0.3-0.2,0.5-0.5l1.3-2.3c0.6-1,0.9-1.6,1.2-1.8c0.5-0.5,1.2-0.7,2.2-0.7
		C712,817.6,714.4,820,714.4,824.9L714.4,824.9z"/>
	<path class="st32" d="M626.9,847.1l-1.2,3.9c-0.5,1.5-1.2,2.3-2.1,2.3h-1l-1.6,15l-1.3-0.5c-1.2-0.5-1.9-1.5-2-3.2l-0.8-11.4h-9.5
		l3.2-8c1.2,1.2,2.2,1.8,3.3,1.8H626.9L626.9,847.1z"/>
	<path class="st32" d="M647,855.7l-1.1,4.6c-0.7,2.7-1.6,4.7-2.8,5.9c-1.3,1.3-3.1,2-5.3,2h-0.6c-2.1,0-3.8-0.8-4.9-2.5
		c-0.8-1.2-1.4-3.2-1.9-5.8l-1.2-6.7l-2.1,0l3.2-8c0.4,0.4,0.9,0.8,1.3,1.3c0.5,0.4,1.2,0.6,2.1,0.6h8c3.8,0,5.7,1.8,5.7,5.4
		C647.4,853.5,647.3,854.6,647,855.7L647,855.7z M642.5,856.1c0.1-2-0.7-3-2.3-3h-5.8L634,857c-0.1,0.4-0.1,0.8-0.1,1.2
		c0,2.8,1.2,4.2,3.6,4.2h0.9c2.4,0,3.7-1.5,4-4.4L642.5,856.1L642.5,856.1z"/>
	<path class="st32" d="M668.3,852.2c0,0.7-0.1,1.9-0.3,3.4l-1.6,10.5c-0.1,0.9-0.2,1.6-0.2,2.1l-0.9-0.4c-0.9-0.4-1.5-0.9-1.8-1.4
		c-0.3-0.5-0.5-1.3-0.5-2.2v-7.5c0-1.3-0.2-2.2-0.7-2.7c-0.5-0.5-1.3-0.7-2.5-0.7H656l-2,12.9c-0.2,1.2-0.3,1.9-0.3,2.1l-1.3-0.5
		c-1.2-0.5-1.9-1.8-1.9-3.9v-10.7h-2.3l3.3-8.1c0.6,0.8,1,1.2,1,1.3c0.6,0.5,1.3,0.7,2.3,0.7h8.1c1.5,0,2.8,0.4,3.7,1.3
		C667.7,849.2,668.3,850.5,668.3,852.2L668.3,852.2z"/>
	<path class="st32" d="M698.1,862.2l-1.5,4.4c-0.3,0.9-0.8,1.3-1.5,1.3H680l1.4-4.1c0.3-0.7,0.5-1.2,0.7-1.3
		c0.2-0.2,0.6-0.3,1.2-0.3h8l0-5.6c0-1.3-0.2-2.2-0.7-2.6c-0.4-0.5-1.3-0.7-2.5-0.7h-7.5l3.2-8.1c0.8,1.3,1.8,2,3.1,2h4.3
		c3.6,0,5.3,1.7,5.3,5.2c0,1-0.1,2.1-0.4,3.4l-1.4,6.6H698.1L698.1,862.2z"/>
	<path class="st32" d="M714.3,852.3c0,0.8-0.2,2.3-0.5,4.3l-1.3,8.9c-0.2,1.1-0.3,2-0.4,2.8l-1.3-0.6c-0.8-0.4-1.4-0.8-1.6-1.4
		c-0.2-0.4-0.3-1.2-0.3-2.2l0-7.5c0-1.5-0.1-2.5-0.4-2.8c-0.3-0.4-1.1-0.5-2.3-0.5h-7.9l3.2-8.1c0.8,1.1,1.8,1.6,2.9,1.6h4.6
		C712.5,846.7,714.3,848.6,714.3,852.3L714.3,852.3z"/>
</g>
</svg>
